<?xml version="1.0" standalone="no"?>
<!DOCTYPE svg PUBLIC "-//W3C//DTD SVG 1.1//EN" "http://www.w3.org/Graphics/SVG/1.1/DTD/svg11.dtd" >
<svg>
<metadata>
Created by FontForge 20120731 at Mon Sep  5 15:02:41 2016
 By www
(c) Copyright 1994 as an unpublished work by Galapagos Design Group, Inc.  All rights reserved.
</metadata>
<defs>
<font id="MaiandraGD-Roman" horiz-adv-x="500" >
  <font-face 
    font-family="Maiandra"
    font-weight="500"
    font-stretch="normal"
    units-per-em="1000"
    panose-1="0 0 0 0 0 0 0 0 0 0"
    ascent="800"
    descent="-200"
    x-height="486"
    cap-height="705"
    bbox="-168 -236 1381 963"
    underline-thickness="53"
    underline-position="-82"
    stemh="68"
    stemv="73"
    unicode-range="U+0020-FB02"
  />
<missing-glyph horiz-adv-x="294" 
 />
    <glyph glyph-name=".notdef" horiz-adv-x="294" 
 />
    <glyph glyph-name="space" unicode=" " horiz-adv-x="294" 
 />
    <glyph glyph-name="exclam" unicode="!" horiz-adv-x="301" 
d="M215 64c0 -35 -30 -64 -72 -64c-37 0 -63 25 -63 61c0 39 28 66 70 66c40 0 65 -24 65 -63zM190 207c-13 -8 -25 -12 -35 -12c-41 0 -55 41 -55 129c0 64 6 130 6 198c0 63 -6 113 -24 153c31 19 56 29 77 29c30 0 46 -17 46 -50c0 -78 -30 -193 -30 -343
c0 -51 3 -85 15 -104z" />
    <glyph glyph-name="quotedbl" unicode="&#x22;" horiz-adv-x="331" 
d="M135 646l-29 -195c-3 -18 -8 -27 -16 -27c-10 0 -12 9 -15 28l-30 194c-1 5 -1 12 -1 19c0 34 16 53 46 53c29 0 47 -19 47 -52c0 -1 0 -8 -2 -20zM286 646l-29 -195c-3 -18 -8 -27 -16 -27c-10 0 -12 9 -15 28l-30 194c-1 9 -1 15 -1 19c0 34 17 53 46 53s47 -19 47 -52
c0 -2 0 -10 -2 -20z" />
    <glyph glyph-name="numbersign" unicode="#" horiz-adv-x="556" 
d="M438 467h55c21 0 35 -12 35 -29c0 -19 -19 -34 -48 -34h-62l-36 -119h56c21 0 35 -12 35 -29c0 -19 -19 -34 -48 -34h-63l-61 -197c-8 -25 -26 -39 -43 -39c-15 0 -25 10 -25 22c0 5 0 11 2 16l61 198h-117l-61 -197c-8 -25 -26 -39 -43 -39c-15 0 -25 9 -25 22
c0 5 0 10 2 16l61 198h-50c-23 0 -37 12 -37 31c0 17 18 32 45 32h61l37 119h-50c-23 0 -37 13 -37 30c0 18 17 33 45 33h61l61 200c7 24 24 38 41 38s28 -12 28 -28c0 -4 -1 -9 -2 -13l-61 -197h117l62 197c8 24 26 39 42 39c15 0 25 -10 25 -23c0 -5 0 -10 -2 -16z
M234 406l-37 -123h119l38 123h-120z" />
    <glyph glyph-name="dollar" unicode="$" horiz-adv-x="569" 
d="M256 6c-19 -3 -36 -5 -53 -5c-63 0 -95 19 -95 55c0 17 7 34 22 53c29 -15 59 -20 95 -20c85 0 132 37 132 98c0 52 -37 80 -97 125c-83 62 -135 102 -135 177c0 69 47 134 141 182c-2 32 -3 65 -3 98c0 38 11 56 37 56c11 0 26 -6 43 -18c-9 -36 -14 -74 -15 -113
c25 5 45 8 59 8c53 0 80 -16 80 -45c0 -16 -9 -33 -25 -56c-27 11 -55 16 -85 16c-90 0 -141 -41 -141 -104c0 -43 23 -72 67 -107c93 -75 164 -118 164 -203c0 -69 -44 -130 -128 -173c1 -41 2 -73 2 -96c0 -43 -9 -62 -35 -62c-12 0 -28 7 -47 22c12 35 17 72 17 112z" />
    <glyph glyph-name="percent" unicode="%" horiz-adv-x="993" 
d="M403 512c0 -133 -78 -220 -187 -220c-100 0 -170 75 -170 195c0 133 73 214 183 214c112 0 174 -67 174 -189zM220 353c69 0 111 56 111 157c0 86 -39 134 -103 134c-71 0 -110 -51 -110 -146c0 -94 39 -145 102 -145zM376 -12c-10 -1 -20 -2 -28 -2c-38 0 -56 11 -56 38
c0 43 90 168 219 406c79 146 117 240 119 282c16 2 28 3 35 3c32 0 49 -14 49 -39c0 -42 -93 -169 -221 -411c-77 -146 -117 -238 -117 -276v-1zM958 220c0 -132 -79 -220 -188 -220c-100 0 -170 75 -170 194c0 133 74 215 184 215c112 0 174 -67 174 -189zM774 61
c69 0 112 56 112 157c0 86 -39 133 -103 133c-71 0 -111 -50 -111 -145c0 -94 39 -145 102 -145z" />
    <glyph glyph-name="ampersand" unicode="&#x26;" horiz-adv-x="701" 
d="M493 83c-70 -67 -137 -97 -225 -97c-141 0 -229 81 -229 205c0 97 54 176 161 229c-15 35 -22 67 -22 100c0 112 77 185 202 185c79 0 126 -31 126 -67c0 -21 -14 -39 -43 -53c-26 32 -58 47 -97 47c-62 0 -102 -43 -102 -113c0 -93 74 -197 220 -324
c27 52 40 101 40 146v5c15 3 29 5 42 5c30 0 44 -11 44 -38c0 -32 -23 -87 -69 -166c51 -40 93 -61 128 -61c6 0 12 1 17 2c8 -16 12 -31 12 -46c0 -30 -18 -49 -45 -49c-34 0 -90 29 -160 90zM436 130c-83 70 -150 146 -204 229c-72 -36 -109 -91 -109 -156
c0 -85 62 -143 160 -143c60 0 110 23 153 70z" />
    <glyph glyph-name="quoteright" unicode="&#x2019;" horiz-adv-x="285" 
d="M95 508c21 22 33 40 33 65c0 13 -5 24 -16 30c-8 5 -26 5 -45 14c-15 7 -23 22 -23 44c0 33 25 57 62 57c52 0 89 -40 89 -97c0 -53 -35 -97 -103 -124l-2 6z" />
    <glyph glyph-name="parenleft" unicode="(" horiz-adv-x="352" 
d="M346 672c-106 -68 -170 -212 -170 -405c0 -129 28 -248 78 -344c23 -44 43 -69 43 -84c0 -12 -9 -21 -19 -21c-12 0 -32 13 -47 36c-29 45 -71 104 -102 201c-22 70 -33 147 -33 229c0 155 48 297 121 391c23 30 44 45 68 45s43 -16 61 -48z" />
    <glyph glyph-name="parenright" unicode=")" horiz-adv-x="352" 
d="M6 -134c106 68 170 213 170 405c0 123 -26 237 -68 323c-28 57 -53 88 -53 105c0 12 9 21 19 21c12 0 30 -12 47 -36c91 -128 135 -266 135 -430c0 -148 -43 -284 -115 -383c-25 -35 -48 -53 -74 -53c-24 0 -44 16 -61 48z" />
    <glyph glyph-name="asterisk" unicode="*" 
d="M403 614c24 0 40 -16 40 -38c0 -19 -13 -35 -39 -50c-35 -20 -70 -29 -85 -29c-19 0 -31 10 -31 25c0 8 7 20 20 34c37 39 72 58 95 58zM293 659v1c-4 -72 -22 -109 -43 -109s-43 39 -43 108c0 37 18 59 43 59c26 0 42 -21 43 -59zM213 523c0 -15 -11 -24 -29 -24
c-12 0 -43 8 -85 28c-27 13 -41 31 -41 51c0 21 17 37 40 37c22 0 59 -19 96 -58c13 -14 19 -27 19 -34zM226 452v-1c0 -10 -9 -37 -34 -72c-20 -28 -37 -43 -59 -43s-38 16 -38 38c0 20 20 47 62 79c21 16 38 22 46 22c13 0 23 -10 23 -23zM367 335c-21 0 -40 14 -60 42
c-24 34 -34 63 -34 73c0 13 11 24 24 24c16 0 43 -17 79 -52c19 -18 28 -37 28 -51c0 -21 -16 -36 -37 -36z" />
    <glyph glyph-name="plus" unicode="+" horiz-adv-x="673" 
d="M300 42v219h-214c-26 0 -45 17 -45 37c0 23 17 37 46 37h213v217c0 29 13 46 36 46c19 0 37 -19 37 -45v-218h214c26 0 45 -17 45 -37c0 -22 -17 -37 -46 -37h-213v-217c0 -29 -14 -46 -37 -46c-19 0 -36 19 -36 44z" />
    <glyph glyph-name="comma" unicode="," horiz-adv-x="285" 
d="M128 -95l1 1c-6 -3 -12 -6 -19 -8l-3 5l7 5c18 13 31 39 31 60c0 7 -1 16 -3 26c-10 15 -24 15 -35 18c-33 9 -47 19 -47 52c0 34 26 59 64 59c54 0 90 -40 90 -99c0 -51 -28 -88 -86 -119z" />
    <glyph glyph-name="hyphen" unicode="-" horiz-adv-x="308" 
d="M38 204c-1 11 -1 20 -1 27c0 44 21 63 68 63c35 0 74 -8 117 -8c17 0 33 3 47 9c1 -15 2 -24 2 -27c0 -44 -21 -63 -68 -63c-38 0 -75 9 -111 9c-20 0 -37 -3 -54 -10z" />
    <glyph glyph-name="period" unicode="." horiz-adv-x="285" 
d="M206 58c0 -35 -30 -64 -72 -64c-37 0 -63 25 -63 61c0 39 29 66 71 66c40 0 64 -24 64 -63z" />
    <glyph glyph-name="slash" unicode="/" horiz-adv-x="370" 
d="M293 656c15 33 21 49 58 49c17 0 26 -8 26 -18c0 -7 -5 -19 -13 -36l-306 -695c-15 -34 -22 -49 -57 -49c-18 0 -27 7 -27 19c0 9 5 20 12 35z" />
    <glyph glyph-name="zero" unicode="0" horiz-adv-x="588" 
d="M552 373c0 -238 -115 -386 -268 -386c-146 0 -249 128 -249 339c0 238 106 376 270 376c155 0 247 -116 247 -329zM289 62c107 0 173 107 173 305c0 172 -59 262 -165 262c-107 0 -170 -99 -170 -287c0 -183 61 -280 162 -280z" />
    <glyph glyph-name="one" unicode="1" horiz-adv-x="398" 
d="M276 22c-28 -15 -52 -22 -74 -22c-40 0 -48 15 -48 64c0 78 11 221 11 429c0 43 -1 82 -4 117c-41 -17 -66 -28 -76 -28c-16 0 -25 10 -25 30c0 14 4 30 11 49c86 18 137 43 162 43s30 -15 30 -49c0 -30 -14 -153 -14 -369c0 -131 3 -219 27 -264z" />
    <glyph glyph-name="two" unicode="2" horiz-adv-x="569" 
d="M47 -3c-9 18 -14 35 -14 51c0 62 62 93 146 157c143 108 217 198 217 289c0 76 -56 128 -140 128c-67 0 -113 -32 -148 -100c-28 18 -41 39 -41 62c0 63 76 122 192 122c138 0 230 -85 230 -205c0 -130 -119 -260 -353 -417c43 -1 74 -2 92 -2c121 0 203 10 246 35
c9 -23 13 -43 13 -60c0 -46 -28 -58 -96 -58c-80 0 -155 5 -225 5c-42 0 -82 -2 -119 -7z" />
    <glyph glyph-name="three" unicode="3" horiz-adv-x="569" 
d="M95 106c28 -23 65 -35 110 -35c109 0 181 59 181 131c0 69 -50 100 -154 114c-57 8 -95 1 -95 35c0 29 24 31 59 39c120 26 180 64 180 133c0 57 -47 96 -126 96c-50 0 -89 -17 -121 -51c-23 16 -34 33 -34 52c0 44 60 84 161 84c131 0 213 -71 213 -167
c0 -82 -59 -145 -169 -170c120 -25 179 -76 179 -161c0 -119 -124 -220 -302 -220c-74 0 -111 19 -111 57c0 17 10 37 29 63z" />
    <glyph glyph-name="four" unicode="4" horiz-adv-x="569" 
d="M346 191c-103 0 -162 2 -179 2c-58 0 -98 -3 -119 -9c-19 21 -28 40 -28 61c0 57 90 139 226 301c82 98 127 157 168 157c22 0 27 -15 27 -47c0 -28 -14 -152 -14 -370v-22c47 0 83 6 107 19c9 -19 13 -34 13 -45c0 -38 -23 -51 -77 -51c-12 0 -26 1 -42 2
c1 -70 3 -118 3 -144c0 -42 -9 -59 -40 -59c-19 0 -43 8 -72 23c18 33 26 94 27 182zM348 262c2 80 3 159 3 235v75c-148 -189 -239 -278 -239 -297c0 -13 16 -16 50 -16c17 0 39 1 65 1c25 0 66 1 121 2z" />
    <glyph glyph-name="five" unicode="5" horiz-adv-x="569" 
d="M80 117c29 -27 64 -39 108 -39c124 0 208 78 208 176c0 78 -54 125 -146 125c-69 0 -114 -18 -135 -18c-18 0 -27 9 -27 27c0 15 25 114 62 302c45 -3 86 -5 124 -5c89 0 152 6 192 23c10 -18 15 -34 15 -48c0 -50 -42 -54 -135 -54c-43 0 -88 1 -137 3
c-6 -34 -17 -90 -33 -167c38 7 70 11 95 11c134 0 216 -74 216 -188c0 -64 -24 -124 -67 -168c-67 -68 -153 -104 -252 -104c-77 0 -118 23 -118 58c0 16 10 38 30 66z" />
    <glyph glyph-name="six" unicode="6" horiz-adv-x="569" 
d="M144 354c43 46 100 72 175 72c125 0 202 -77 202 -202c0 -137 -101 -237 -246 -237c-146 0 -229 93 -229 260c0 168 74 316 193 401c59 42 116 60 147 60s46 -13 46 -41c0 -8 -1 -20 -5 -35c-154 -13 -250 -107 -283 -278zM141 284c-3 -20 -4 -38 -4 -57
c0 -106 51 -165 142 -165c94 0 154 61 154 160c0 86 -48 133 -136 133c-64 0 -113 -22 -156 -71z" />
    <glyph glyph-name="seven" unicode="7" horiz-adv-x="569" 
d="M89 581c-15 25 -23 48 -23 67c0 34 19 43 67 43c28 0 110 -5 247 -5c47 0 89 3 126 16c11 -18 17 -34 17 -52c0 -60 -86 -160 -176 -341c-65 -130 -100 -224 -100 -289c0 -5 1 -12 1 -21c-26 -8 -45 -12 -56 -12c-34 0 -51 16 -51 47c0 80 103 262 281 568
c-43 4 -88 5 -133 5c-97 0 -163 -8 -200 -26z" />
    <glyph glyph-name="eight" unicode="8" horiz-adv-x="569" 
d="M364 352c97 -29 143 -78 143 -158c0 -121 -95 -210 -235 -210c-130 0 -212 75 -212 183c0 80 45 139 134 176c-83 37 -124 93 -124 170c0 112 89 193 231 193c128 0 207 -70 207 -174c0 -82 -48 -142 -144 -180zM260 319c-77 -34 -114 -79 -114 -144
c0 -70 53 -117 134 -117c85 0 143 54 143 129c0 67 -52 101 -163 132zM292 378c88 29 133 79 133 143c0 69 -49 112 -130 112c-85 0 -139 -49 -139 -121c0 -66 46 -111 136 -134z" />
    <glyph glyph-name="nine" unicode="9" horiz-adv-x="569" 
d="M423 333c-40 -45 -102 -70 -174 -70c-126 0 -203 79 -203 208c0 141 95 234 244 234c144 0 229 -97 229 -268c0 -170 -69 -311 -185 -394c-57 -41 -123 -61 -163 -61c-34 0 -51 14 -51 43c0 7 3 18 7 34c11 -2 21 -2 28 -2c116 0 231 100 268 276zM428 411
c2 13 2 26 2 40c0 120 -50 181 -146 181c-92 0 -150 -59 -150 -156c0 -91 49 -140 138 -140c59 0 110 25 156 75z" />
    <glyph glyph-name="colon" unicode=":" horiz-adv-x="308" 
d="M219 384c0 -35 -30 -64 -72 -64c-37 0 -63 25 -63 61c0 39 28 66 71 66c39 0 64 -24 64 -63zM214 58c0 -35 -30 -64 -72 -64c-37 0 -63 25 -63 61c0 39 28 66 71 66c39 0 64 -24 64 -63z" />
    <glyph glyph-name="semicolon" unicode=";" horiz-adv-x="308" 
d="M216 384c0 -35 -30 -64 -72 -64c-37 0 -63 25 -63 61c0 39 28 66 71 66c39 0 64 -24 64 -63zM140 -95l1 1c-6 -3 -12 -6 -19 -8l-3 5l7 5c18 13 31 39 31 60c0 7 -1 16 -3 26c-10 15 -24 15 -35 18c-33 9 -47 19 -47 52s26 58 64 58c53 0 90 -40 90 -98
c0 -50 -28 -88 -86 -119z" />
    <glyph glyph-name="less" unicode="&#x3c;" horiz-adv-x="833" 
d="M166 348l496 203c8 3 16 5 21 5c23 0 37 -14 37 -35c0 -17 -12 -33 -30 -41l-448 -182l448 -183c18 -8 30 -24 30 -41c0 -20 -14 -35 -34 -35c-7 0 -15 1 -24 5l-497 204c-33 13 -50 33 -50 50c0 20 17 36 51 50z" />
    <glyph glyph-name="equal" unicode="=" horiz-adv-x="833" 
d="M165 168c-26 0 -45 17 -45 37c0 23 17 37 46 37h500c26 0 45 -17 45 -37c0 -23 -17 -37 -47 -37h-499zM164 355c-26 0 -44 17 -44 37c0 22 16 37 45 37l500 -1c26 0 46 -17 46 -37c0 -22 -18 -36 -48 -36h-499z" />
    <glyph glyph-name="greater" unicode="&#x3e;" horiz-adv-x="833" 
d="M676 348c34 -14 51 -30 51 -50c0 -17 -18 -37 -50 -50l-497 -204c-9 -3 -16 -5 -23 -5c-20 0 -35 15 -35 35c0 16 10 29 31 41c9 4 158 65 447 183l-447 182c-19 8 -31 24 -31 41c0 20 16 35 36 35c8 0 15 -2 23 -5z" />
    <glyph glyph-name="question" unicode="?" horiz-adv-x="396" 
d="M234 64c0 -35 -30 -64 -72 -64c-37 0 -63 25 -63 61c0 39 28 66 70 66c40 0 65 -24 65 -63zM194 197c-8 -1 -15 -1 -19 -1c-39 0 -61 21 -61 57c0 49 40 92 87 156c33 46 55 81 55 124c0 51 -38 88 -96 88c-27 0 -55 -10 -85 -30c-8 22 -13 38 -13 49c0 37 33 63 91 63
c102 0 184 -80 184 -169c0 -72 -40 -118 -84 -176c-37 -49 -62 -86 -62 -128c0 -10 1 -21 3 -33z" />
    <glyph glyph-name="at" unicode="@" horiz-adv-x="1000" 
d="M706 424c-47 -147 -57 -258 -57 -292c0 -7 1 -10 7 -10s32 5 55 20c68 43 101 113 101 209c0 138 -90 220 -245 220c-110 0 -204 -38 -274 -111c-69 -71 -106 -168 -106 -281c0 -175 118 -288 307 -288c136 0 237 60 346 179c12 13 23 20 33 20c16 0 27 -11 27 -25
c0 -13 -12 -37 -39 -67c-101 -113 -232 -173 -382 -173c-221 0 -369 141 -369 356c0 127 46 242 129 325c85 85 202 131 341 131c188 0 305 -111 305 -282c0 -88 -29 -164 -82 -220c-48 -51 -113 -80 -170 -80c-40 0 -59 17 -59 53c0 5 0 10 1 16c-41 -48 -85 -71 -134 -71
c-81 0 -138 62 -138 161c0 65 26 119 78 174c33 35 97 63 171 63c39 0 90 -9 154 -27zM616 376c-26 11 -51 17 -75 17c-91 0 -164 -76 -164 -178c0 -68 32 -103 93 -103c36 0 71 24 111 72c20 107 32 171 35 192z" />
    <glyph glyph-name="A" unicode="A" horiz-adv-x="666" 
d="M451 225h-264c-45 -97 -70 -168 -70 -216v-8c-9 -1 -18 -2 -26 -2c-43 0 -65 18 -65 51c0 47 110 225 260 569c-11 16 -23 30 -36 43c22 29 43 43 63 43c24 0 44 -24 67 -74c43 -95 96 -247 184 -445c26 -58 53 -109 84 -153c-24 -22 -45 -34 -68 -34
c-49 0 -74 76 -129 226zM325 540c-37 -87 -72 -170 -106 -248h206c-31 84 -64 167 -100 248z" />
    <glyph glyph-name="B" unicode="B" horiz-adv-x="588" 
d="M368 354c91 -24 137 -74 137 -146c0 -113 -119 -211 -297 -211c-89 0 -118 14 -118 83c0 51 9 157 9 316c0 154 -6 255 -29 306c95 0 150 4 164 4c170 0 269 -77 269 -187c0 -73 -45 -129 -135 -165zM182 317v-69c0 -62 1 -118 2 -169c20 -3 41 -5 63 -5
c103 0 166 54 166 126c0 78 -62 119 -185 119c-14 0 -30 -1 -46 -2zM185 631c-2 -66 -3 -149 -4 -248c18 -2 35 -3 51 -3c117 0 180 48 180 128s-60 126 -172 126c-17 0 -35 -1 -55 -3z" />
    <glyph glyph-name="C" unicode="C" horiz-adv-x="657" 
d="M567 607c-38 17 -79 24 -124 24c-188 0 -310 -113 -310 -275s119 -278 287 -278c52 0 98 12 145 38c18 -23 28 -42 28 -60c0 -38 -56 -64 -163 -64c-111 0 -205 31 -273 88c-82 69 -124 158 -124 266c0 114 51 210 151 285c71 53 175 87 291 87c81 0 117 -11 117 -48
c0 -16 -9 -37 -25 -63z" />
    <glyph glyph-name="D" unicode="D" horiz-adv-x="729" 
d="M70 702c118 2 186 6 203 6c259 0 417 -135 417 -333c0 -108 -46 -207 -130 -279c-77 -66 -181 -100 -310 -100c-119 0 -160 11 -160 76c0 42 9 154 9 337c0 144 -7 241 -29 293zM192 623c-4 -138 -6 -248 -6 -329c0 -78 2 -146 5 -204c31 -8 62 -12 93 -12
c185 0 304 114 304 276s-120 276 -299 276c-33 0 -65 -2 -97 -7z" />
    <glyph glyph-name="E" unicode="E" horiz-adv-x="513" 
d="M458 603c-39 18 -91 23 -156 23c-29 0 -66 -1 -111 -2l-4 -216c24 -1 49 -1 76 -1c87 0 143 4 169 12c8 -18 12 -32 12 -43c0 -32 -20 -44 -65 -44c-30 0 -74 2 -132 2c-19 0 -40 0 -62 -1c0 -82 -2 -167 -5 -254c40 -1 75 -2 106 -2c62 0 112 6 155 26
c13 -23 20 -41 20 -58c0 -39 -26 -47 -82 -47c-47 0 -94 3 -140 3c-70 0 -108 -3 -117 -3c-23 0 -31 10 -31 35c0 35 10 147 10 336c0 163 -5 273 -19 329h62c156 0 245 9 266 9c49 0 69 -8 69 -40c0 -17 -7 -38 -21 -64z" />
    <glyph glyph-name="F" unicode="F" horiz-adv-x="525" 
d="M442 417c6 -12 9 -24 9 -35c0 -44 -24 -55 -81 -55c-14 0 -56 1 -127 1h-58c0 -157 7 -257 32 -303c-32 -17 -59 -26 -81 -26c-37 0 -46 18 -46 66c0 73 11 229 11 469c0 64 -4 120 -17 169c34 -2 63 -3 86 -3c102 0 182 11 241 11c47 0 68 -9 68 -39
c0 -20 -7 -42 -21 -68c-28 16 -80 24 -156 24c-27 0 -65 -1 -113 -3v-69c0 -26 -1 -77 -2 -153c14 -1 26 -1 36 -1c97 0 170 1 219 15z" />
    <glyph glyph-name="G" unicode="G" horiz-adv-x="734" 
d="M558 321c33 20 58 30 74 30c44 0 55 -32 55 -101c0 -110 -20 -183 -42 -207c-34 -36 -102 -55 -203 -55c-248 0 -404 136 -404 331c0 99 38 188 113 263c85 86 206 135 338 135c56 0 83 -14 83 -47c0 -15 -6 -35 -18 -59c-27 11 -56 15 -88 15
c-188 0 -325 -120 -325 -293c0 -167 109 -263 305 -263c49 0 95 8 139 24c5 31 7 62 7 96c0 61 -11 104 -34 131z" />
    <glyph glyph-name="H" unicode="H" horiz-adv-x="794" 
d="M187 408h422v39c0 117 -8 194 -29 232c33 17 60 26 82 26c35 0 45 -19 45 -67c0 -51 -9 -154 -9 -308c0 -156 6 -257 32 -305c-31 -17 -58 -26 -83 -26c-36 0 -46 19 -46 66c0 30 6 121 7 273h-422v-49c0 -135 8 -222 31 -264c-32 -17 -59 -26 -81 -26
c-38 0 -46 19 -46 71c0 64 10 176 10 336c0 137 -7 228 -31 273c31 17 58 26 80 26c35 0 46 -19 46 -66c0 -25 -5 -102 -8 -231z" />
    <glyph glyph-name="I" unicode="I" horiz-adv-x="294" 
d="M224 25c-31 -17 -59 -26 -84 -26c-37 0 -45 20 -45 71c0 65 9 176 9 336c0 141 -7 232 -30 273c32 17 59 26 83 26c36 0 46 -19 46 -67c0 -46 -10 -161 -10 -347c0 -133 7 -221 31 -266z" />
    <glyph glyph-name="J" unicode="J" horiz-adv-x="394" 
d="M34 103c23 -20 46 -29 71 -29c92 0 108 91 108 290c0 164 -11 269 -34 316c30 15 55 23 77 23c43 0 46 -29 46 -100c0 -189 -2 -325 -13 -406c-19 -138 -88 -211 -193 -211c-56 0 -90 24 -90 57c0 19 9 38 28 60z" />
    <glyph glyph-name="K" unicode="K" horiz-adv-x="623" 
d="M187 385c154 152 247 257 274 324c49 -13 73 -30 73 -53c0 -38 -93 -114 -252 -268c194 -202 300 -319 355 -322c-12 -49 -34 -75 -60 -75c-29 0 -57 24 -97 66c-59 61 -147 174 -293 311v-71c0 -132 5 -221 25 -268c-29 -19 -53 -29 -76 -29c-33 0 -46 25 -46 79
c0 69 9 179 9 331c0 134 -5 222 -30 269c31 17 57 25 80 25c36 0 46 -18 46 -65c0 -23 -7 -107 -8 -254z" />
    <glyph glyph-name="L" unicode="L" horiz-adv-x="466" 
d="M188 81c31 -3 58 -4 81 -4c79 0 137 5 178 27c13 -22 19 -42 19 -63c0 -34 -24 -42 -81 -42c-38 0 -84 3 -139 3c-69 0 -111 -4 -126 -4c-22 0 -30 9 -30 35c0 34 11 148 11 345c0 156 -7 256 -31 301c30 17 57 25 82 25c40 0 47 -19 47 -71c0 -45 -11 -200 -11 -463v-89
z" />
    <glyph glyph-name="M" unicode="M" horiz-adv-x="951" 
d="M852 678c-12 -42 -17 -87 -17 -138c0 -215 28 -388 79 -515c-31 -17 -59 -26 -84 -26c-27 0 -42 12 -49 38c-8 30 -6 199 -33 504c-132 -248 -208 -410 -243 -479c-11 -23 -22 -34 -39 -34c-18 0 -28 12 -39 34c-108 215 -184 377 -244 476c-21 -303 -19 -474 -35 -513
c-7 -17 -20 -26 -39 -26c-15 0 -38 9 -72 26c50 124 78 298 78 518c0 49 -5 94 -16 135c19 18 38 27 58 27c60 0 102 -119 216 -346c60 -119 92 -180 102 -180c16 0 81 139 213 405c40 81 71 121 106 121c19 0 37 -9 58 -27z" />
    <glyph glyph-name="N" unicode="N" horiz-adv-x="802" 
d="M657 -6c-165 163 -310 357 -483 538c1 -261 9 -413 9 -454c0 -56 -6 -78 -48 -78c-24 0 -50 8 -77 25c45 77 48 217 48 426c0 112 -8 175 -56 201c26 31 47 47 71 47s43 -16 68 -45c24 -28 165 -200 438 -504c2 97 3 171 3 224c0 142 -7 243 -44 307c28 15 52 23 73 23
c44 0 49 -26 49 -87c0 -85 -11 -211 -11 -379c0 -76 3 -148 11 -216z" />
    <glyph glyph-name="O" unicode="O" horiz-adv-x="838" 
d="M398 -14c-100 0 -188 34 -253 96c-71 67 -106 155 -106 263c0 107 39 199 113 269c72 68 169 104 282 104c222 0 365 -137 365 -343c0 -102 -37 -195 -106 -266c-79 -82 -177 -123 -295 -123zM697 368c0 165 -107 272 -273 272c-171 0 -283 -113 -283 -288
c0 -170 111 -285 269 -285c168 0 287 122 287 301z" />
    <glyph glyph-name="P" unicode="P" horiz-adv-x="546" 
d="M215 25c-31 -17 -58 -26 -80 -26c-38 0 -47 19 -47 71c0 69 10 175 10 319c0 171 -8 274 -29 309h21c61 0 124 10 188 10c150 0 237 -77 237 -201c0 -144 -108 -246 -269 -246c-22 0 -42 1 -63 4c1 -118 10 -197 32 -240zM184 337c20 -3 40 -4 61 -4
c108 0 172 61 172 161c0 91 -54 140 -157 140c-22 0 -44 -3 -68 -8c-5 -84 -8 -168 -8 -252v-37z" />
    <glyph glyph-name="Q" unicode="Q" horiz-adv-x="838" 
d="M527 13c83 -25 150 -39 201 -39c23 0 44 2 65 5c9 -26 14 -46 14 -60c0 -31 -20 -49 -56 -49c-30 0 -68 7 -114 23c-136 46 -242 88 -334 88c-38 0 -75 -11 -113 -33c-13 15 -20 28 -20 40c0 26 21 39 63 39h5c-126 48 -199 164 -199 318c0 107 39 199 113 269
c72 68 169 104 282 104c222 0 365 -137 365 -343c0 -175 -89 -292 -272 -362zM697 368c0 166 -107 272 -276 272c-168 0 -280 -113 -280 -288c0 -170 111 -285 269 -285c168 0 287 122 287 301z" />
    <glyph glyph-name="R" unicode="R" horiz-adv-x="639" 
d="M357 293c43 -15 71 -54 110 -96c72 -78 126 -124 166 -135c-20 -47 -43 -71 -67 -71c-40 0 -75 48 -135 117c-68 79 -111 134 -150 150c-15 6 -32 9 -52 9c-13 0 -28 -2 -44 -4c2 -121 10 -200 31 -238c-32 -17 -58 -26 -80 -26c-38 0 -46 19 -46 71c0 58 9 171 9 342
c0 143 -5 238 -29 286c120 3 190 10 209 10c148 0 236 -76 236 -194c0 -105 -53 -180 -158 -221zM193 626c-5 -98 -8 -198 -8 -301c8 0 16 -1 23 -1c136 0 212 67 212 177c0 84 -57 133 -158 133c-22 0 -45 -3 -69 -8z" />
    <glyph glyph-name="S" unicode="S" horiz-adv-x="431" 
d="M65 108c28 -15 56 -22 89 -22c79 0 125 39 125 97c0 54 -36 83 -88 125c-79 63 -131 103 -131 182c0 47 21 95 60 134c58 57 126 87 196 87c51 0 76 -17 76 -51c0 -11 -8 -30 -25 -57c-26 11 -52 16 -79 16c-84 0 -133 -40 -133 -105c0 -45 24 -73 68 -110
c88 -74 150 -120 150 -203c0 -40 -15 -78 -42 -113c-47 -60 -120 -95 -203 -95c-56 0 -84 20 -84 57c0 17 7 36 21 58z" />
    <glyph glyph-name="T" unicode="T" horiz-adv-x="597" 
d="M364 25c-31 -17 -59 -26 -84 -26c-36 0 -45 19 -45 66c0 75 10 202 10 380c0 37 -1 94 -2 173h-37c-90 0 -150 -7 -184 -26c-14 26 -22 47 -22 64c0 31 21 40 68 40c57 0 149 -9 277 -9c107 0 181 7 221 29c13 -21 19 -38 19 -53c0 -35 -26 -51 -80 -51
c-26 0 -81 3 -166 6c-5 -123 -7 -223 -7 -300c0 -149 8 -246 32 -293z" />
    <glyph glyph-name="U" unicode="U" horiz-adv-x="752" 
d="M68 680c29 17 57 25 83 25c38 0 45 -21 45 -75c0 -60 -11 -159 -11 -297c0 -187 45 -267 181 -267c156 0 217 103 217 331c0 144 -16 237 -50 279c28 19 52 29 72 29c61 0 66 -67 66 -222c0 -345 -83 -498 -316 -498c-191 0 -262 95 -262 308c0 71 5 139 5 202
c0 83 -8 144 -30 185z" />
    <glyph glyph-name="V" unicode="V" horiz-adv-x="657" 
d="M-8 665c21 26 43 39 70 39c52 0 68 -62 107 -178c90 -266 136 -402 155 -402c8 0 34 28 66 84c85 150 139 278 139 408c0 28 -4 53 -12 76c21 8 38 12 54 12c41 0 54 -18 54 -66c0 -136 -73 -302 -206 -517c-55 -89 -87 -136 -109 -136c-23 0 -52 45 -88 136
c-119 298 -164 493 -230 544z" />
    <glyph glyph-name="W" unicode="W" horiz-adv-x="1009" 
d="M587 685c20 7 38 11 54 11c31 0 44 -16 44 -52c0 -55 -40 -160 -119 -313c70 -139 113 -208 128 -208c7 0 34 26 65 78c94 156 148 288 148 415c0 27 -4 52 -12 76c21 8 40 12 56 12c37 0 51 -20 51 -65c0 -100 -49 -251 -156 -423c-94 -152 -142 -230 -167 -230
c-28 0 -73 95 -160 277c-114 -185 -188 -277 -216 -277c-17 0 -47 45 -84 136c-122 297 -172 491 -240 543c23 26 45 39 68 39c48 0 66 -45 98 -133c106 -295 155 -452 183 -452c21 0 76 71 158 216c-70 174 -122 281 -175 319c19 29 40 42 67 42c54 0 87 -97 155 -289
c42 93 63 164 63 215c0 20 -3 41 -9 63z" />
    <glyph glyph-name="X" unicode="X" horiz-adv-x="657" 
d="M341 419c104 126 160 208 160 256c0 7 -2 13 -4 19c19 6 37 9 56 9c31 0 47 -13 47 -36c0 -45 -80 -139 -221 -303c128 -187 202 -283 234 -283h1c-12 -53 -39 -81 -68 -81c-20 0 -32 12 -46 32c-11 16 -64 109 -173 268c-113 -136 -174 -222 -174 -272c0 -7 1 -13 3 -19
c-20 -6 -39 -9 -56 -9c-34 0 -49 10 -49 35c0 46 85 146 238 320c-125 177 -200 269 -231 271c16 54 38 81 69 81c20 0 33 -12 48 -35c24 -37 75 -124 166 -253z" />
    <glyph glyph-name="Y" unicode="Y" horiz-adv-x="595" 
d="M248 294c-126 221 -209 332 -249 335c16 55 40 82 70 82c19 0 31 -11 45 -31c15 -21 69 -129 186 -310c116 168 178 269 178 315c0 6 -1 11 -3 15c21 5 41 8 59 8c26 0 40 -13 40 -35c0 -37 -90 -150 -236 -367c0 -23 -1 -46 -1 -67c0 -104 7 -175 28 -215
c-30 -16 -56 -24 -82 -24c-34 0 -44 17 -44 61c0 26 6 104 9 233z" />
    <glyph glyph-name="Z" unicode="Z" horiz-adv-x="578" 
d="M87 0c-23 22 -34 44 -34 70c0 79 111 185 256 381c62 84 93 135 93 152c0 18 -22 19 -74 19c-116 0 -199 -4 -251 -28c-8 22 -12 40 -12 56c0 37 25 48 80 48c53 0 136 -5 248 -5c30 0 58 1 85 5c22 -21 33 -43 33 -65c0 -71 -88 -164 -213 -324
c-97 -124 -141 -196 -141 -211c0 -14 39 -20 119 -20c117 0 198 7 244 27c8 -22 12 -40 12 -53c0 -46 -29 -50 -93 -50c-74 0 -157 6 -248 6c-38 0 -73 -2 -104 -8z" />
    <glyph glyph-name="bracketleft" unicode="[" horiz-adv-x="352" 
d="M194 643c5 -148 7 -273 7 -377c0 -94 -3 -220 -7 -377c56 1 90 5 103 5c20 0 30 -8 30 -24c0 -13 -9 -28 -25 -46c-35 7 -72 9 -113 9c-9 0 -38 0 -86 -1c8 40 14 185 14 434c0 248 -6 393 -14 434c53 -1 85 -2 97 -2c36 0 69 3 102 10c17 -18 26 -33 26 -45
c0 -18 -10 -26 -31 -26c-11 0 -46 4 -103 6z" />
    <glyph glyph-name="backslash" unicode="\" horiz-adv-x="370" 
d="M62 656l307 -695c7 -15 12 -26 12 -35c0 -12 -9 -19 -27 -19c-36 0 -42 15 -57 49l-306 695c-6 14 -13 25 -13 35c0 11 9 18 26 18c36 0 43 -14 58 -48z" />
    <glyph glyph-name="bracketright" unicode="]" horiz-adv-x="352" 
d="M249 -168c-46 1 -78 1 -97 1c-34 0 -68 -3 -102 -10c-17 18 -26 32 -26 45c0 18 10 26 31 26c11 0 46 -5 103 -6c-5 144 -7 270 -7 378c0 97 2 222 7 377c-58 -2 -92 -6 -103 -6c-20 0 -31 8 -31 24c0 13 9 28 26 47c33 -7 66 -10 102 -10c12 0 44 1 97 2
c-9 -45 -15 -190 -15 -434c0 -245 6 -389 15 -434z" />
    <glyph glyph-name="asciicircum" unicode="^" horiz-adv-x="1000" 
d="M714 546c43 -44 75 -65 75 -89c0 -13 -10 -23 -23 -23c-17 0 -36 13 -62 34l-176 142c-14 11 -23 18 -31 18s-15 -8 -25 -16l-175 -142c-29 -24 -50 -36 -62 -36c-13 0 -21 9 -21 24c0 16 18 36 47 65l141 142c29 29 43 53 96 53c52 0 68 -23 102 -57z" />
    <glyph glyph-name="underscore" unicode="_" 
d="M0 -178h500v-58h-500v58z" />
    <glyph glyph-name="quoteleft" unicode="&#x2018;" horiz-adv-x="285" 
d="M195 709c-26 -11 -49 -43 -49 -73c0 -25 14 -29 30 -38c21 -12 33 -21 33 -45c0 -33 -25 -56 -63 -56c-46 0 -79 32 -79 81c0 77 53 133 135 140v-6z" />
    <glyph glyph-name="a" unicode="a" horiz-adv-x="498" 
d="M346 243c-32 5 -55 7 -71 7c-101 0 -153 -34 -153 -100c0 -53 38 -86 101 -86c48 0 89 18 124 54c-1 21 -2 44 -2 69c0 18 1 37 1 56zM453 26c-26 -17 -47 -25 -62 -25c-28 0 -40 17 -41 55c-48 -41 -95 -62 -146 -62c-99 0 -163 61 -163 149c0 98 85 167 228 167
c26 0 52 -2 78 -5c1 9 1 16 1 20c0 68 -39 104 -111 104c-59 0 -97 -18 -121 -61c-24 6 -36 21 -36 43c0 44 59 82 163 82c119 0 179 -57 179 -172c0 -35 -3 -75 -3 -121c0 -81 8 -138 34 -174z" />
    <glyph glyph-name="b" unicode="b" horiz-adv-x="558" 
d="M64 39c9 104 12 231 12 381c0 134 0 225 -26 275c29 14 52 22 71 22c32 0 39 -18 39 -64c0 -28 -5 -102 -7 -223c54 36 105 55 158 55c121 0 211 -92 211 -222c0 -152 -115 -269 -274 -269c-59 0 -119 16 -184 45zM153 93c39 -21 75 -32 111 -32c100 0 175 79 175 194
c0 99 -59 162 -151 162c-41 0 -85 -17 -135 -50c-1 -47 -2 -93 -2 -139c0 -45 1 -90 2 -135z" />
    <glyph glyph-name="c" unicode="c" horiz-adv-x="424" 
d="M372 394c-24 15 -49 22 -77 22c-98 0 -173 -77 -173 -188c0 -98 62 -160 162 -160c41 0 75 11 108 36c12 -19 18 -33 18 -45c0 -39 -47 -67 -132 -67c-145 0 -241 91 -241 221c0 79 26 143 80 198c53 54 123 83 198 83c56 0 84 -16 84 -49c0 -18 -9 -34 -27 -51z" />
    <glyph glyph-name="d" unicode="d" horiz-adv-x="579" 
d="M432 465v43c0 91 -6 153 -24 189c27 14 50 21 67 21c33 0 42 -16 42 -58c0 -69 -13 -192 -13 -371c0 -133 4 -221 31 -267c-27 -14 -51 -22 -71 -22c-27 0 -36 15 -36 50c0 7 0 15 1 24c-51 -55 -104 -80 -171 -80c-129 0 -221 94 -221 231c0 153 113 266 269 266
c39 0 81 -9 126 -26zM427 145c1 93 2 147 2 163c0 30 0 60 -1 89c-45 19 -85 29 -122 29c-113 0 -185 -76 -185 -199c0 -102 59 -165 152 -165c61 0 110 27 154 83z" />
    <glyph glyph-name="e" unicode="e" horiz-adv-x="491" 
d="M407 103c14 -17 21 -32 21 -47c0 -32 -51 -60 -142 -60c-156 0 -249 91 -249 240c0 152 100 257 238 257c108 0 184 -68 184 -163c0 -79 -59 -104 -189 -104c-46 0 -98 3 -153 11v-7c0 -102 65 -165 167 -165c49 0 90 13 123 38zM123 295c41 -7 92 -11 155 -11
c72 0 102 8 102 52c0 58 -43 96 -115 96c-74 0 -128 -49 -142 -137z" />
    <glyph glyph-name="f" unicode="f" horiz-adv-x="310" 
d="M98 400c-19 0 -34 -1 -43 -1c-18 0 -28 10 -28 28c0 10 3 19 9 30c15 -1 35 -1 61 -1v8c0 164 63 251 175 251c47 0 75 -21 75 -49c0 -19 -15 -38 -43 -51c-16 18 -32 27 -50 27c-52 0 -75 -54 -75 -167v-14c39 2 64 3 73 3c31 0 43 -6 43 -30c0 -9 -3 -22 -10 -37
c-16 7 -34 9 -53 9c-7 0 -25 -1 -54 -2c0 -184 7 -296 7 -337c0 -48 -7 -66 -40 -66c-22 0 -47 8 -74 23c21 37 29 120 29 248c0 39 -1 81 -2 128z" />
    <glyph glyph-name="g" unicode="g" horiz-adv-x="502" 
d="M150 185c-63 32 -95 79 -95 141c0 98 78 172 193 172c33 0 67 -10 102 -29c65 18 104 33 115 51c13 -14 19 -29 19 -45c0 -35 -26 -50 -83 -58c23 -29 34 -57 34 -90c0 -88 -76 -159 -185 -159c-13 0 -28 1 -43 3c-13 -13 -19 -25 -19 -36c0 -40 46 -43 128 -62
c107 -25 156 -51 156 -129c0 -95 -93 -171 -238 -171c-135 0 -211 61 -211 149c0 64 38 113 111 144c-16 14 -24 29 -24 46c0 21 13 45 40 73zM246 229c68 0 115 45 115 102c0 60 -44 102 -113 102c-71 0 -116 -41 -116 -100c0 -60 46 -104 114 -104zM182 31h1
c-54 -22 -81 -54 -81 -94c0 -58 54 -100 145 -100c89 0 143 39 143 88c0 59 -66 73 -208 106z" />
    <glyph glyph-name="h" unicode="h" horiz-adv-x="551" 
d="M178 21c-25 -14 -49 -21 -71 -21c-33 0 -39 17 -39 63c0 58 13 192 13 404c0 112 -1 187 -24 230c28 14 51 21 70 21c33 0 40 -19 40 -65c0 -20 -6 -91 -10 -214c54 35 103 53 149 53c109 0 173 -70 173 -191c0 -37 -3 -78 -3 -124c0 -71 4 -122 25 -155
c-29 -15 -52 -22 -70 -22c-33 0 -40 15 -40 57c0 51 6 112 6 185c0 127 -27 183 -106 183c-42 0 -85 -17 -134 -49c-2 -60 -3 -116 -3 -167c0 -87 4 -149 24 -188z" />
    <glyph glyph-name="i" unicode="i" horiz-adv-x="252" 
d="M187 635c0 -37 -29 -65 -69 -65c-34 0 -56 21 -56 54c0 37 30 66 67 66c34 0 58 -24 58 -55zM191 22c-26 -14 -51 -21 -75 -21c-34 0 -41 16 -41 64c0 56 9 134 9 235c0 69 -5 123 -25 164c25 15 51 22 75 22c31 0 39 -14 39 -52c0 -36 -9 -114 -9 -233
c0 -80 7 -139 27 -179z" />
    <glyph glyph-name="j" unicode="j" horiz-adv-x="264" 
d="M196 635c0 -37 -29 -65 -69 -65c-34 0 -56 21 -56 54c0 37 30 66 67 66c34 0 58 -24 58 -55zM69 465c26 14 50 21 73 21c40 0 42 -25 42 -86v-18c0 -210 -5 -350 -40 -429c-41 -91 -120 -144 -147 -144c-16 0 -28 11 -28 29c0 23 26 30 46 52c67 72 80 177 80 339
c0 121 -7 199 -26 236z" />
    <glyph glyph-name="k" unicode="k" horiz-adv-x="502" 
d="M178 21c-26 -14 -48 -21 -71 -21c-30 0 -39 19 -39 63c0 60 13 193 13 400c0 115 -1 192 -24 234c28 14 51 21 70 21c33 0 40 -18 40 -64c0 -33 -13 -162 -13 -389c128 104 206 178 231 228c41 -15 61 -29 61 -51c0 -28 -77 -79 -212 -187c139 -131 216 -206 251 -206h2
c-6 -40 -24 -60 -50 -60c-52 0 -123 103 -284 249v-22c0 -96 6 -160 25 -195z" />
    <glyph glyph-name="l" unicode="l" horiz-adv-x="259" 
d="M191 22c-26 -14 -50 -21 -72 -21c-33 0 -41 17 -41 63c0 105 11 235 11 391c0 118 -5 197 -28 241c27 15 51 22 72 22c35 0 42 -16 42 -62c0 -86 -11 -219 -11 -398c0 -112 3 -190 27 -236z" />
    <glyph glyph-name="m" unicode="m" horiz-adv-x="851" 
d="M57 484c14 5 28 7 43 7c35 0 56 -19 58 -54c52 35 100 52 149 52c48 0 90 -19 126 -56c59 39 114 59 166 59c116 0 181 -69 181 -196c0 -32 -3 -72 -3 -122c0 -72 5 -122 25 -152c-29 -15 -52 -22 -70 -22c-33 0 -40 15 -40 56c0 63 7 130 7 200c0 113 -31 166 -112 166
c-44 0 -85 -14 -127 -41c9 -51 9 -102 9 -153v-38c0 -73 1 -130 22 -169c-25 -14 -48 -21 -70 -21c-31 0 -39 16 -39 57c0 43 5 105 5 185c0 122 -18 178 -103 178c-39 0 -79 -16 -124 -46c-2 -98 -4 -159 -4 -182c0 -77 6 -134 24 -171c-26 -14 -49 -21 -71 -21
c-34 0 -39 18 -39 66c0 44 11 129 11 256c0 71 -7 125 -24 162z" />
    <glyph glyph-name="n" unicode="n" horiz-adv-x="562" 
d="M160 375c-2 -114 -4 -180 -4 -200c0 -58 6 -108 24 -154c-26 -14 -49 -21 -71 -21c-34 0 -39 18 -39 66c0 40 10 122 10 245c0 70 -3 127 -23 174c14 5 28 7 43 7c34 0 55 -20 58 -55c56 36 107 55 158 55c68 0 121 -30 148 -80c24 -44 26 -97 26 -165
c0 -17 -1 -45 -1 -82c0 -69 9 -117 26 -143c-29 -15 -52 -22 -70 -22c-33 0 -41 15 -41 57c0 48 6 115 6 199c0 115 -32 168 -113 168c-41 0 -86 -17 -137 -49z" />
    <glyph glyph-name="o" unicode="o" horiz-adv-x="600" 
d="M293 -12c-151 0 -256 103 -256 249c0 154 111 261 274 261c147 0 252 -103 252 -243c0 -58 -20 -117 -50 -155c-58 -75 -131 -112 -220 -112zM299 58c105 0 180 78 180 189c0 108 -73 183 -178 183c-107 0 -180 -76 -180 -193c0 -104 75 -179 178 -179z" />
    <glyph glyph-name="p" unicode="p" horiz-adv-x="581" 
d="M154 40c-1 -19 -1 -38 -1 -55c0 -85 7 -144 25 -180c-26 -14 -49 -21 -70 -21c-31 0 -39 16 -39 57c0 91 13 225 13 403c0 106 -2 184 -25 234c14 5 28 7 43 7c34 0 53 -19 54 -54c55 36 106 54 158 54c133 0 232 -99 232 -230c0 -56 -19 -110 -47 -147
c-56 -72 -126 -108 -208 -108c-50 0 -93 12 -135 40zM156 109c44 -28 86 -42 130 -42c102 0 175 74 175 175c0 106 -66 175 -165 175c-42 0 -87 -17 -137 -49c-1 -60 -2 -146 -3 -259z" />
    <glyph glyph-name="q" unicode="q" horiz-adv-x="567" 
d="M509 481c-14 -95 -16 -194 -16 -300c0 -197 8 -321 35 -375c-27 -14 -50 -21 -70 -21c-34 0 -42 17 -42 61c0 22 2 97 2 225c-50 -52 -100 -77 -162 -77c-126 0 -219 95 -219 231c0 156 114 267 279 267c51 0 101 -13 152 -13c4 0 18 1 41 2zM419 145c1 73 2 133 2 180
c0 10 0 40 -1 88c-40 9 -75 14 -106 14c-125 0 -198 -75 -198 -200c0 -101 60 -165 151 -165c59 0 107 27 152 83z" />
    <glyph glyph-name="r" unicode="r" horiz-adv-x="361" 
d="M151 384c48 68 92 102 135 102c37 0 66 -27 66 -60c0 -23 -15 -44 -44 -64c-10 28 -25 42 -47 42c-31 0 -67 -31 -102 -92c-3 -27 -5 -57 -5 -89c0 -91 9 -158 33 -202c-26 -14 -51 -21 -75 -21c-35 0 -42 16 -42 60c0 47 10 135 10 265c0 61 -2 111 -21 154
c14 5 27 7 39 7c38 0 56 -18 56 -55c0 -8 -1 -23 -3 -47z" />
    <glyph glyph-name="s" unicode="s" horiz-adv-x="343" 
d="M70 78c23 -12 44 -18 65 -18c48 0 78 26 78 61c0 34 -20 56 -56 85c-55 46 -97 75 -97 133c0 28 11 57 33 84c40 48 96 75 161 75c32 0 48 -13 48 -35c0 -12 -7 -28 -19 -49c-17 7 -33 11 -48 11c-55 0 -91 -30 -91 -71s40 -67 94 -115c37 -33 56 -65 56 -101
c0 -78 -79 -149 -185 -149c-37 0 -56 15 -56 41c0 13 6 28 17 48z" />
    <glyph glyph-name="t" unicode="t" horiz-adv-x="331" 
d="M101 392c-21 -1 -35 -2 -42 -2c-26 0 -36 6 -36 25c0 9 3 20 9 34c9 0 18 -1 28 -1c14 0 29 1 46 2c0 11 1 22 1 32c0 52 -7 90 -20 118c28 14 50 21 66 21c27 0 38 -16 38 -53c0 -16 -3 -55 -7 -115c35 5 66 8 92 8c21 0 30 -7 30 -25c0 -10 -6 -25 -17 -43
c-20 5 -40 6 -61 6c-6 0 -23 -1 -50 -2c-5 -91 -8 -160 -8 -206c0 -83 11 -122 52 -122c11 0 22 4 34 12c5 -12 8 -22 8 -30c0 -31 -27 -55 -71 -55c-71 0 -104 47 -104 142c0 36 6 121 12 254z" />
    <glyph glyph-name="u" unicode="u" horiz-adv-x="546" 
d="M388 71c-44 -54 -93 -79 -157 -79c-107 0 -166 66 -166 189c0 44 5 96 5 158c0 51 -5 93 -23 127c29 14 51 21 66 21c31 0 40 -14 40 -54c0 -55 -8 -125 -8 -207c0 -115 21 -165 100 -165c56 0 100 27 142 81c3 46 4 93 4 141c0 86 -8 146 -27 182c27 14 50 22 70 22
c34 0 38 -22 38 -73c0 -53 -5 -126 -5 -219c0 -83 5 -140 26 -173c-29 -14 -51 -22 -68 -22c-31 0 -37 20 -37 71z" />
    <glyph glyph-name="v" unicode="v" horiz-adv-x="539" 
d="M9 421c25 43 47 65 69 65c38 0 59 -58 95 -169c48 -150 71 -228 86 -228c7 0 24 17 46 52c72 113 105 212 105 283c0 19 -3 38 -10 57c16 5 29 5 40 5c43 0 62 -13 62 -50c0 -62 -39 -164 -124 -300c-58 -93 -98 -142 -140 -142c-48 0 -61 54 -94 157
c-46 141 -81 232 -135 270z" />
    <glyph glyph-name="w" unicode="w" horiz-adv-x="822" 
d="M5 444c24 29 45 44 65 44c12 0 25 -8 32 -20c18 -34 34 -118 78 -242c31 -88 53 -132 62 -132c5 0 71 86 114 256c21 85 16 131 58 131c36 0 39 -46 62 -144c37 -161 81 -243 91 -243c3 0 16 15 35 46c68 112 101 208 101 284c0 21 -3 40 -11 58c16 5 30 6 43 6
c37 0 56 -18 56 -54c0 -61 -42 -183 -142 -336c-45 -68 -78 -102 -99 -102c-41 0 -85 110 -141 327c-71 -219 -140 -327 -178 -327c-16 0 -41 33 -73 100c-72 149 -98 278 -153 348z" />
    <glyph glyph-name="x" unicode="x" horiz-adv-x="507" 
d="M212 244c-92 124 -149 187 -175 189c12 39 32 59 57 59c39 0 73 -78 168 -201c79 85 122 142 122 176c0 5 -1 10 -3 14c18 6 33 11 46 11c28 0 42 -13 42 -37c0 -38 -63 -101 -174 -212c95 -124 145 -191 169 -191h1c-10 -38 -30 -57 -57 -57c-37 0 -71 72 -161 196
c-79 -84 -122 -137 -122 -171c0 -5 1 -10 2 -16c-18 -6 -34 -9 -48 -9c-31 0 -44 9 -44 35c0 44 65 106 177 214z" />
    <glyph glyph-name="y" unicode="y" horiz-adv-x="522" 
d="M126 -149c37 30 62 70 86 121l16 34c-107 255 -172 389 -220 394c15 57 40 86 67 86c19 0 33 -10 44 -33c16 -31 59 -153 154 -354c91 190 134 306 134 345c0 7 -2 16 -4 26c25 9 46 16 62 16c23 0 38 -16 38 -36c0 -40 -89 -186 -202 -465c-50 -123 -67 -191 -103 -191
c-24 0 -48 19 -72 57z" />
    <glyph glyph-name="z" unicode="z" horiz-adv-x="449" 
d="M48 -2c-12 10 -18 23 -18 37c0 31 108 142 272 380c-45 1 -74 2 -88 2c-78 0 -129 -7 -152 -19c-7 20 -11 35 -11 47c0 31 19 39 62 39c54 0 117 -3 190 -3c32 0 64 0 96 5c11 -13 17 -25 17 -37c0 -38 -108 -147 -269 -379c26 -1 51 -2 75 -2c88 0 149 4 185 18
c7 -17 10 -30 10 -40c0 -33 -27 -46 -85 -46c-22 0 -87 4 -194 4c-32 0 -62 -2 -90 -6z" />
    <glyph glyph-name="braceleft" unicode="{" horiz-adv-x="352" 
d="M110 263c82 -4 113 -45 113 -138c0 -69 -1 -118 -1 -147c0 -66 22 -99 69 -101c40 -2 61 0 61 -22c0 -20 -20 -31 -59 -31c-113 0 -149 45 -149 168c0 30 2 60 2 89c0 85 -9 130 -69 147c-33 9 -56 8 -56 35c0 23 14 26 34 29c61 10 89 45 89 113v129
c0 118 38 171 133 171c48 0 73 -12 73 -32c0 -28 -32 -18 -60 -23c-48 -9 -67 -37 -67 -97v-101c0 -114 -17 -168 -113 -189z" />
    <glyph glyph-name="bar" unicode="|" 
d="M219 764h62v-1000h-62v1000z" />
    <glyph glyph-name="braceright" unicode="}" horiz-adv-x="352" 
d="M207 405c0 -68 28 -102 90 -113c18 -3 33 -3 33 -29c0 -22 -15 -25 -37 -30c-76 -18 -87 -52 -87 -149c0 -29 2 -60 2 -92c0 -124 -37 -168 -150 -168c-39 0 -58 10 -58 31c0 22 21 20 60 22c50 2 69 37 69 110c0 19 -1 65 -1 138c0 93 31 134 113 138
c-88 19 -113 68 -113 170c0 34 1 68 1 102c0 63 -11 97 -50 110c-37 12 -77 -3 -77 28c0 21 25 32 73 32c94 0 132 -53 132 -171v-129z" />
    <glyph glyph-name="asciitilde" unicode="~" horiz-adv-x="833" 
d="M562 228c-28 0 -54 3 -77 10c-77 22 -142 55 -208 55c-82 0 -133 -62 -166 -62c-22 0 -35 13 -35 31c0 10 5 23 16 34c45 47 113 75 186 75c36 0 73 -7 112 -20c56 -20 110 -47 173 -47c90 0 131 59 162 59c22 0 36 -13 36 -33c0 -44 -85 -102 -199 -102z" />
    <glyph glyph-name="exclamdown" unicode="&#xa1;" horiz-adv-x="301" 
d="M80 625c0 34 30 64 72 64c37 0 63 -26 63 -61c0 -39 -28 -66 -71 -66c-39 0 -64 24 -64 63zM105 482c13 8 24 12 35 12c41 0 55 -42 55 -129c0 -63 -6 -131 -6 -201c0 -58 5 -107 24 -150c-31 -19 -57 -29 -78 -29c-30 0 -45 17 -45 50c0 76 30 196 30 357
c0 33 -3 62 -15 90z" />
    <glyph glyph-name="cent" unicode="&#xa2;" horiz-adv-x="569" 
d="M441 398c-31 17 -63 25 -99 25c-120 0 -195 -72 -195 -173s73 -172 181 -172c42 0 81 9 120 29c11 -16 16 -30 16 -41c0 -39 -44 -66 -127 -66c0 -33 1 -57 1 -71c0 -42 -7 -60 -34 -60c-13 0 -29 7 -48 21c12 36 18 74 18 114c-133 26 -209 115 -209 238
c0 120 75 211 208 246c-1 23 -1 44 -1 65c0 54 4 77 33 77c13 0 28 -6 46 -18c-10 -38 -15 -76 -15 -113c14 1 26 2 38 2c61 0 92 -16 92 -51c0 -18 -8 -34 -25 -52z" />
    <glyph glyph-name="sterling" unicode="&#xa3;" horiz-adv-x="569" 
d="M161 265c-27 -2 -48 -3 -62 -3c-33 0 -47 8 -47 31c0 8 4 19 11 33c13 -1 25 -1 37 -1c13 0 25 0 37 1c-9 34 -14 62 -14 87c0 86 43 170 117 223c60 44 136 68 217 68c59 0 86 -14 86 -50c0 -14 -6 -30 -17 -50c-29 11 -57 16 -87 16c-141 0 -232 -79 -232 -194
c0 -26 6 -58 18 -97c73 4 122 8 148 8c32 0 46 -9 46 -32c0 -12 -4 -25 -13 -41c-21 4 -56 7 -103 7c-11 0 -31 -1 -59 -2c10 -31 15 -58 15 -81c0 -43 -13 -80 -41 -116c26 -2 51 -3 74 -3c100 0 172 13 216 37c13 -20 19 -39 19 -57c0 -45 -36 -57 -118 -57
c-92 0 -172 11 -240 11c-38 0 -72 -2 -105 -10c-9 16 -14 32 -14 46c0 31 19 40 62 40c6 0 17 -1 34 -2c25 27 37 56 37 90c0 25 -8 57 -22 98z" />
    <glyph glyph-name="fraction" unicode="&#x2044;" horiz-adv-x="167" 
d="M-90 -11c-19 -2 -30 -3 -34 -3c-28 0 -44 15 -44 39c0 28 47 90 123 199c174 248 281 404 299 488c14 2 24 3 29 3c33 0 50 -13 50 -37c0 -28 -54 -101 -146 -233c-161 -231 -262 -376 -277 -456z" />
    <glyph glyph-name="yen" unicode="&#xa5;" horiz-adv-x="615" 
d="M180 425c-46 -3 -77 -5 -93 -5c-43 0 -63 4 -63 30c0 9 7 23 22 43c23 -9 49 -13 78 -13h18c-48 83 -87 125 -114 129c15 53 35 80 62 80c18 0 29 -11 41 -30s64 -126 176 -308c110 166 169 267 169 312c0 6 -1 11 -3 15c20 5 39 11 56 11c23 0 35 -14 35 -34
c0 -24 -21 -63 -60 -120l-33 -49c35 2 60 3 74 3c29 0 43 -10 43 -32c0 -13 -6 -25 -18 -39c-31 8 -62 12 -94 12c-15 0 -29 0 -44 -2l-56 -81c65 2 109 4 134 4c52 0 78 -4 78 -35c0 -9 -5 -21 -16 -37c-35 8 -90 12 -165 12c-18 0 -37 -1 -57 -1c-1 -27 -1 -51 -1 -75
c0 -93 7 -158 21 -192c-28 -15 -53 -23 -76 -23c-33 0 -41 16 -41 59c0 37 3 87 3 147c0 26 -1 53 -2 82l-1 1c-69 -3 -121 -7 -158 -7c-48 0 -71 7 -71 30c0 11 7 26 20 45c36 -10 81 -14 135 -14c17 0 34 0 52 1z" />
    <glyph glyph-name="florin" unicode="&#x192;" horiz-adv-x="569" 
d="M220 337c-25 0 -45 -1 -59 -1c-28 0 -41 7 -41 25c0 9 5 22 14 41c24 -3 48 -4 72 -4h22c22 205 97 304 234 304c53 0 83 -22 83 -53c0 -22 -15 -39 -45 -52c-16 21 -34 30 -60 30c-72 0 -103 -71 -123 -224c52 1 82 2 91 2c39 0 56 -3 56 -27c0 -10 -6 -25 -17 -44
c-21 7 -41 8 -63 8h-21c-7 0 -25 0 -56 -1c-46 -388 -105 -569 -268 -569c-45 0 -70 19 -70 49c0 20 12 36 35 51c16 -15 31 -21 52 -21c82 0 120 160 164 486z" />
    <glyph glyph-name="section" unicode="&#xa7;" 
d="M212 445c-49 32 -74 69 -74 112c0 38 21 78 59 110c40 33 87 51 133 51c36 0 54 -12 54 -37c0 -13 -7 -30 -20 -51c-15 7 -30 11 -46 11c-56 0 -94 -30 -94 -67s35 -67 91 -112c66 -54 109 -88 109 -153c0 -67 -47 -125 -136 -159c58 -43 87 -82 87 -127
c0 -80 -82 -152 -195 -152c-43 0 -64 15 -64 46c0 13 6 29 18 48c25 -13 49 -19 74 -19c53 0 86 27 86 60c0 39 -46 74 -119 135c-58 49 -98 82 -98 144c0 65 47 124 135 160zM250 188c66 27 99 63 99 108c0 39 -34 70 -100 110c-65 -24 -100 -64 -100 -108
c0 -40 34 -73 101 -110z" />
    <glyph glyph-name="currency" unicode="&#xa4;" horiz-adv-x="588" 
d="M120 565c-54 53 -88 80 -88 105c0 19 13 31 34 31c20 0 50 -31 102 -87c40 28 80 41 125 41c44 0 85 -13 126 -41c53 52 80 87 106 87c18 0 31 -13 31 -31c0 -25 -34 -52 -88 -105c26 -40 39 -80 39 -124s-13 -83 -39 -123c52 -53 88 -78 88 -105c0 -19 -13 -32 -34 -32
c-23 0 -50 35 -103 88c-40 -28 -81 -41 -126 -41s-85 13 -123 41c-54 -52 -82 -87 -107 -87c-18 0 -31 13 -31 31c0 26 35 52 88 105c-27 40 -40 81 -40 124s13 83 40 123zM294 585c-80 0 -143 -63 -143 -143c0 -81 63 -144 143 -144s143 64 143 144s-63 143 -143 143z" />
    <glyph glyph-name="quotesingle" unicode="'" horiz-adv-x="180" 
d="M135 646l-29 -194c-3 -19 -8 -28 -16 -28c-10 0 -12 9 -15 28l-30 194c-1 5 -1 12 -1 19c0 34 16 53 46 53c29 0 47 -19 47 -52c0 -1 0 -8 -2 -20z" />
    <glyph glyph-name="quotedblleft" unicode="&#x201c;" horiz-adv-x="484" 
d="M194 708c-30 -15 -48 -44 -48 -67c0 -17 4 -29 13 -34c26 -16 50 -21 50 -54s-25 -56 -63 -56c-46 0 -79 32 -79 81c0 77 53 134 135 140v-7zM403 708c-30 -15 -48 -44 -48 -67c0 -17 4 -29 13 -34c26 -16 50 -21 50 -54s-25 -56 -63 -56c-46 0 -79 32 -79 81
c0 77 53 134 135 140v-7z" />
    <glyph glyph-name="guillemotleft" unicode="&#xab;" horiz-adv-x="370" 
d="M121 243c0 -48 41 -83 41 -103c0 -12 -9 -20 -21 -20c-13 0 -34 13 -59 40c-30 32 -45 58 -45 83c0 24 15 50 45 82c25 27 46 40 59 40c12 0 21 -8 21 -20c0 -20 -41 -56 -41 -102zM286 243c0 -48 41 -83 41 -103c0 -12 -8 -20 -21 -20s-34 13 -60 40
c-29 31 -44 57 -44 83c0 24 15 51 44 82c26 27 47 40 60 40s21 -8 21 -20c0 -20 -41 -56 -41 -102z" />
    <glyph glyph-name="guilsinglleft" unicode="&#x2039;" horiz-adv-x="206" 
d="M121 243c0 -48 41 -83 41 -103c0 -12 -9 -20 -21 -20c-13 0 -34 13 -59 40c-30 32 -45 58 -45 83c0 24 15 50 45 82c25 27 46 40 59 40c12 0 21 -8 21 -20c0 -20 -41 -56 -41 -102z" />
    <glyph glyph-name="guilsinglright" unicode="&#x203a;" horiz-adv-x="206" 
d="M85 242c0 47 -41 83 -41 103c0 12 8 20 19 20c15 0 36 -13 61 -40c30 -32 45 -58 45 -83c0 -23 -15 -50 -45 -82c-25 -27 -46 -40 -61 -40c-11 0 -19 8 -19 20c0 21 41 57 41 102z" />
    <glyph glyph-name="fi" unicode="&#xfb01;" horiz-adv-x="574" 
d="M98 400c-19 0 -34 -1 -43 -1c-18 0 -28 10 -28 28c0 10 3 19 9 30c11 -1 23 -2 35 -2c8 0 17 1 26 1v6c0 157 84 251 197 251c48 0 74 -20 74 -49c0 -24 -13 -40 -41 -52c-17 20 -35 29 -57 29c-57 0 -93 -58 -93 -167v-13c52 3 82 4 92 4c27 0 38 -6 38 -31
c0 -10 -3 -23 -10 -37c-17 7 -36 10 -57 10c-10 0 -31 -1 -64 -3c0 -184 7 -296 7 -337c0 -48 -7 -66 -40 -66c-20 0 -44 8 -72 23c21 37 29 120 29 248c0 39 -1 81 -2 128zM513 22c-26 -14 -51 -21 -75 -21c-32 0 -38 18 -38 64c0 56 8 134 8 235c0 69 -4 123 -24 164
c26 15 50 22 72 22c31 0 39 -14 39 -52c0 -36 -8 -114 -8 -233c0 -80 6 -139 26 -179zM509 637c0 -36 -27 -62 -66 -62c-32 0 -53 20 -53 51c0 36 28 64 64 64c33 0 55 -22 55 -53z" />
    <glyph glyph-name="fl" unicode="&#xfb02;" horiz-adv-x="579" 
d="M98 400c-19 0 -34 -1 -43 -1c-18 0 -28 10 -28 28c0 10 3 19 9 30c15 -1 35 -1 61 -1v12c0 153 90 247 219 247c32 0 55 -7 70 -25c29 19 53 25 71 25c34 0 38 -19 38 -70c0 -73 -11 -199 -11 -377c0 -121 4 -202 27 -246c-26 -14 -50 -21 -73 -21c-37 0 -40 21 -40 75
c0 84 11 212 11 383c0 106 -6 173 -13 199c-3 -22 -17 -37 -41 -46c-19 21 -40 31 -67 31c-70 0 -111 -60 -111 -170v-12c52 3 82 4 92 4c27 0 38 -6 38 -31c0 -10 -3 -23 -10 -37c-17 7 -36 10 -57 10c-10 0 -31 -1 -64 -3c0 -184 7 -296 7 -337c0 -46 -7 -66 -38 -66
c-23 0 -47 8 -74 23c21 37 29 120 29 248c0 39 -1 81 -2 128z" />
    <glyph glyph-name="endash" unicode="&#x2013;" 
d="M-7 223v53h514v-53h-514z" />
    <glyph glyph-name="dagger" unicode="&#x2020;" 
d="M213 408h-17c-49 0 -96 -8 -139 -22c-10 17 -15 33 -15 52c0 31 23 43 74 43c10 0 42 -2 97 -3c-1 103 -8 171 -27 205c27 15 51 22 71 22c36 0 43 -16 43 -62c0 -15 -3 -72 -6 -169h10c52 0 101 7 145 23c10 -18 15 -34 15 -50c0 -35 -22 -46 -74 -46c-11 0 -43 2 -97 4
c-3 -111 -4 -199 -4 -265c0 -117 6 -194 27 -234c-27 -15 -51 -22 -73 -22c-33 0 -40 18 -40 64c0 56 9 210 10 460z" />
    <glyph glyph-name="daggerdbl" unicode="&#x2021;" 
d="M210 133h-18c-48 0 -91 -7 -131 -21c-10 16 -15 32 -15 50c0 30 23 42 72 42c8 0 39 -3 94 -4c2 62 3 122 3 183v61h-18c-48 0 -91 -7 -131 -21c-10 17 -15 33 -15 50c0 30 22 42 71 42c8 0 39 -3 93 -4c-2 83 -9 140 -26 172c26 14 49 21 68 21c34 0 41 -16 41 -61
c0 -23 -2 -68 -5 -135h18c46 0 89 7 130 21c10 -16 14 -32 14 -50c0 -30 -22 -41 -71 -41c-19 0 -50 2 -93 3c-2 -78 -4 -159 -4 -244h18c46 0 90 7 131 21c10 -17 15 -33 15 -50c0 -30 -23 -41 -72 -41c-22 0 -53 1 -91 3v-23c0 -100 6 -167 25 -202
c-26 -14 -48 -21 -66 -21c-34 0 -42 16 -42 63c0 28 4 90 5 186z" />
    <glyph glyph-name="periodcentered" unicode="&#xb7;" horiz-adv-x="285" 
d="M209 351c0 -38 -28 -66 -67 -66s-67 28 -67 66c0 39 28 67 67 67s67 -28 67 -67z" />
    <glyph glyph-name="paragraph" unicode="&#xb6;" horiz-adv-x="619" 
d="M447 629c-33 5 -57 8 -74 8c-96 0 -152 -71 -152 -204c0 -123 62 -201 144 -201c24 0 51 5 82 13v384zM450 183c-59 -20 -110 -30 -154 -30c-152 0 -259 107 -259 266c0 101 42 184 115 233c53 35 115 53 179 53c52 0 114 -13 185 -13c7 0 15 1 27 2
c-13 -112 -19 -238 -19 -379c0 -198 8 -337 43 -419c-29 -17 -55 -25 -77 -25c-36 0 -46 18 -46 65c0 28 5 111 6 247z" />
    <glyph glyph-name="bullet" unicode="&#x2022;" horiz-adv-x="590" 
d="M150 372c0 81 63 144 145 144c80 0 144 -63 144 -144c0 -80 -65 -145 -145 -145c-81 0 -144 63 -144 145z" />
    <glyph glyph-name="quotesinglbase" unicode="&#x201a;" horiz-adv-x="285" 
d="M114 -87c22 22 32 42 32 64c0 15 -4 24 -15 31c-8 5 -26 5 -45 14c-15 7 -23 22 -23 44c0 33 25 57 62 57c53 0 89 -40 89 -97c0 -53 -36 -98 -103 -124l-2 6z" />
    <glyph glyph-name="quotedblbase" unicode="&#x201e;" horiz-adv-x="484" 
d="M114 -87c22 22 32 42 32 64c0 15 -4 24 -15 31c-8 5 -26 5 -45 14c-15 7 -23 22 -23 44c0 33 25 57 62 57c53 0 89 -40 89 -97c0 -53 -36 -98 -103 -124l-2 6zM313 -87c22 22 32 42 32 68c0 14 -8 26 -20 29c-41 12 -63 14 -63 56c0 33 25 57 62 57c53 0 89 -40 89 -97
c0 -53 -36 -99 -103 -124l-2 6z" />
    <glyph glyph-name="quotedblright" unicode="&#x201d;" horiz-adv-x="484" 
d="M95 508c21 22 32 41 32 59c0 19 -3 29 -15 36c-8 5 -26 5 -45 14c-16 7 -23 22 -23 44c0 32 25 57 62 57c52 0 89 -40 89 -97c0 -53 -36 -97 -103 -124l-2 6zM294 508c21 21 32 41 32 62c0 17 -3 26 -15 33c-8 5 -26 5 -45 14c-15 7 -23 22 -23 44c0 32 25 57 62 57
c52 0 89 -40 89 -97c0 -53 -35 -97 -103 -124l-2 6z" />
    <glyph glyph-name="guillemotright" unicode="&#xbb;" horiz-adv-x="370" 
d="M85 242c0 47 -41 83 -41 103c0 12 8 20 19 20c15 0 36 -13 61 -40c30 -32 45 -58 45 -83c0 -23 -15 -50 -45 -82c-25 -27 -46 -40 -61 -40c-11 0 -19 8 -19 20c0 21 41 57 41 102zM249 242c0 47 -41 83 -41 103c0 12 8 20 19 20c15 0 37 -13 62 -40c29 -32 44 -59 44 -83
s-15 -51 -44 -82c-25 -27 -47 -40 -62 -40c-11 0 -19 8 -19 20c0 21 41 57 41 102z" />
    <glyph glyph-name="ellipsis" unicode="&#x2026;" horiz-adv-x="1000" 
d="M229 58c0 -35 -30 -64 -72 -64c-37 0 -63 25 -63 61c0 39 28 66 71 66c39 0 64 -24 64 -63zM562 58c0 -35 -30 -64 -72 -64c-37 0 -63 25 -63 61c0 39 29 66 71 66c40 0 64 -24 64 -63zM896 58c0 -35 -30 -64 -72 -64c-37 0 -63 25 -63 61c0 39 29 66 71 66
c40 0 64 -24 64 -63z" />
    <glyph glyph-name="perthousand" unicode="&#x2030;" horiz-adv-x="1417" 
d="M403 512c0 -133 -78 -220 -187 -220c-100 0 -170 75 -170 195c0 133 73 214 183 214c112 0 174 -67 174 -189zM220 353c69 0 111 56 111 157c0 86 -39 134 -103 134c-71 0 -110 -51 -110 -146c0 -94 39 -145 102 -145zM376 -12c-13 -1 -26 -2 -39 -2c-29 0 -45 15 -45 38
c0 43 90 168 219 406c79 145 117 240 119 282c18 2 31 3 39 3c28 0 45 -15 45 -39c0 -42 -93 -169 -221 -411c-77 -146 -117 -238 -117 -276v-1zM958 220c0 -132 -79 -220 -188 -220c-100 0 -170 75 -170 194c0 133 74 215 184 215c112 0 174 -67 174 -189zM774 61
c69 0 112 56 112 157c0 86 -39 133 -103 133c-71 0 -111 -50 -111 -145c0 -94 39 -145 102 -145zM1381 220c0 -133 -78 -220 -187 -220c-100 0 -171 75 -171 194c0 133 74 215 184 215c112 0 174 -67 174 -189zM1198 61c69 0 111 56 111 157c0 86 -39 133 -103 133
c-71 0 -111 -50 -111 -145c0 -94 40 -145 103 -145z" />
    <glyph glyph-name="questiondown" unicode="&#xbf;" horiz-adv-x="396" 
d="M162 625c0 34 30 63 72 63c37 0 63 -25 63 -60c0 -39 -29 -67 -71 -67c-39 0 -64 25 -64 64zM202 491c9 1 16 2 19 2c38 0 61 -22 61 -58c0 -49 -41 -92 -87 -156c-32 -45 -55 -80 -55 -124c0 -51 38 -88 96 -88c28 0 55 10 85 30c8 -19 13 -35 13 -49
c0 -36 -34 -63 -92 -63c-101 0 -183 80 -183 170c0 72 40 117 84 175c37 49 62 86 62 128c0 7 -1 18 -3 33z" />
    <glyph glyph-name="grave" unicode="`" 
d="M300 545c-16 0 -60 13 -124 49c-37 20 -55 43 -55 68s17 42 43 42c33 0 56 -36 105 -88c26 -28 52 -39 52 -55c0 -11 -7 -16 -21 -16z" />
    <glyph glyph-name="acute" unicode="&#xb4;" 
d="M375 662c0 -24 -19 -47 -56 -68c-63 -36 -107 -49 -123 -49c-15 0 -22 5 -22 16c0 16 26 27 52 55c48 51 72 88 105 88c27 0 44 -17 44 -42z" />
    <glyph glyph-name="circumflex" unicode="&#x2c6;" 
d="M247 699c32 0 61 -29 108 -75c26 -26 41 -43 41 -60c0 -10 -8 -19 -18 -19c-13 0 -33 14 -63 34c-36 24 -57 39 -68 39c-14 0 -34 -16 -67 -38c-30 -20 -47 -34 -59 -34c-9 0 -16 7 -16 18c0 18 19 35 47 65c38 42 62 70 95 70z" />
    <glyph glyph-name="tilde" unicode="&#x2dc;" 
d="M186 588c-43 0 -65 -39 -78 -39c-10 0 -14 7 -14 20c0 44 50 94 106 94c46 0 89 -27 125 -27c41 0 59 35 71 35c8 0 13 -6 13 -17c0 -51 -43 -94 -96 -94c-46 0 -88 28 -127 28z" />
    <glyph glyph-name="macron" unicode="&#xaf;" 
d="M116 560c-12 17 -18 31 -18 42c0 31 21 43 66 43c30 0 80 -5 152 -5c26 0 49 2 71 10c12 -17 18 -31 18 -44c0 -27 -20 -40 -61 -40s-93 4 -157 4c-26 0 -49 -2 -71 -10z" />
    <glyph glyph-name="breve" unicode="&#x2d8;" 
d="M250 561c-79 0 -144 61 -144 107c0 11 7 19 16 19c18 0 51 -50 128 -50c36 0 65 9 93 28c13 9 22 22 35 22c9 0 15 -7 15 -19c0 -47 -64 -107 -143 -107z" />
    <glyph glyph-name="dotaccent" unicode="&#x2d9;" 
d="M314 626c0 -35 -28 -62 -68 -62c-35 0 -58 23 -58 56c0 35 27 61 63 61c39 0 63 -22 63 -55z" />
    <glyph glyph-name="dieresis" unicode="&#xa8;" 
d="M224 624c0 -31 -25 -55 -61 -55c-33 0 -54 21 -54 51c0 32 25 56 60 56c33 0 55 -22 55 -52zM392 624c0 -32 -25 -55 -61 -55c-32 0 -53 20 -53 51c0 32 25 56 57 56c35 0 57 -22 57 -52z" />
    <glyph glyph-name="ring" unicode="&#x2da;" 
d="M130 658c0 68 52 120 121 120s121 -52 121 -120c0 -69 -52 -121 -121 -121s-121 52 -121 121zM182 657c0 -39 30 -69 70 -69c39 0 69 30 69 69c0 40 -30 70 -69 70c-40 0 -70 -30 -70 -70z" />
    <glyph glyph-name="cedilla" unicode="&#xb8;" 
d="M288 22c-25 -27 -37 -47 -37 -59c0 -14 9 -15 27 -20c34 -9 49 -21 49 -54c0 -57 -51 -103 -118 -103c-23 0 -34 9 -34 27c0 6 2 14 5 25c10 -3 17 -4 23 -4c36 0 58 20 58 42c0 21 -13 24 -36 28c-27 5 -41 9 -41 32c0 21 21 48 59 86h45z" />
    <glyph glyph-name="hungarumlaut" unicode="&#x2dd;" 
d="M107 558c0 11 21 34 42 78c21 43 27 71 61 71c21 0 38 -17 38 -39c0 -28 -29 -58 -81 -99c-22 -17 -37 -25 -45 -25c-10 0 -15 5 -15 14zM255 558c0 11 20 34 42 79c21 43 27 70 61 70c21 0 38 -16 38 -40c0 -20 -18 -43 -51 -73c-38 -34 -64 -50 -75 -50
c-10 0 -15 5 -15 14z" />
    <glyph glyph-name="ogonek" unicode="&#x2db;" 
d="M297 21c-44 -47 -66 -87 -66 -120c0 -28 17 -45 41 -45c17 0 34 8 51 24c13 -11 19 -21 19 -34c0 -26 -32 -51 -83 -51c-56 0 -92 35 -92 87c0 42 32 87 95 139h35z" />
    <glyph glyph-name="caron" unicode="&#x2c7;" 
d="M255 545c-33 0 -63 33 -116 84c-22 21 -33 37 -33 51c0 11 8 19 18 19c12 0 32 -13 63 -34c35 -24 56 -39 67 -39c14 0 34 14 65 36c34 23 54 36 61 36c10 0 16 -7 16 -20c0 -16 -27 -42 -72 -90c-26 -28 -47 -43 -69 -43z" />
    <glyph glyph-name="emdash" unicode="&#x2014;" horiz-adv-x="1000" 
d="M1007 276v-53h-1014v53h1014z" />
    <glyph glyph-name="AE" unicode="&#xc6;" horiz-adv-x="840" 
d="M446 266h-225c-87 -118 -137 -203 -145 -265c-9 -1 -18 -2 -26 -2c-42 0 -64 17 -64 48c0 19 18 53 55 102c150 200 277 367 363 513l-18 36c28 -1 54 -1 78 -1c158 0 249 10 273 10c49 0 69 -8 69 -40c0 -16 -7 -37 -22 -64c-35 19 -92 23 -171 23c-11 0 -38 -1 -80 -2
l-3 -216c22 -1 43 -2 63 -2c87 0 142 5 165 13c9 -19 13 -33 13 -43c0 -33 -20 -44 -66 -44c-29 0 -70 2 -121 2c-18 0 -36 0 -56 -1c-1 -96 -2 -181 -5 -254c31 -1 62 -2 94 -2c65 0 114 8 151 26c13 -22 19 -42 19 -59c0 -38 -24 -46 -81 -46c-38 0 -85 3 -140 3
c-53 0 -86 -3 -98 -3c-22 0 -30 9 -30 35c0 23 7 101 8 233zM266 333h181c0 43 1 84 1 124c0 56 -1 110 -2 160h-5c-51 -88 -109 -183 -175 -284z" />
    <glyph glyph-name="ordfeminine" unicode="&#xaa;" horiz-adv-x="317" 
d="M290 445c-22 -11 -38 -17 -49 -17c-16 0 -24 10 -27 27c-29 -21 -58 -31 -89 -31c-65 0 -107 38 -107 87c0 64 54 102 157 102c5 0 17 -1 37 -2v7c0 35 -22 54 -65 54c-36 0 -60 -11 -73 -35c-20 2 -32 15 -32 29c0 30 39 52 108 52c81 0 118 -35 118 -110
c0 -9 -1 -30 -1 -62c0 -42 4 -74 23 -101zM211 501c-1 29 -1 47 -1 53v13c-14 2 -27 3 -40 3c-60 0 -91 -18 -91 -52c0 -28 21 -45 59 -45c27 0 50 9 73 28zM34 318c-9 15 -14 26 -14 35c0 24 18 32 55 32c43 0 85 -5 124 -5s69 4 89 12c9 -14 14 -25 14 -34
c0 -24 -17 -33 -55 -33c-42 0 -80 5 -112 5c-50 0 -84 -4 -101 -12z" />
    <glyph glyph-name="Lslash" unicode="&#x141;" horiz-adv-x="472" 
d="M107 288c-26 -19 -45 -41 -58 -65c-30 5 -46 20 -46 44c0 31 37 49 104 91v20c0 158 -7 258 -31 301c30 17 57 25 82 25c40 0 47 -19 47 -71c0 -25 -5 -101 -8 -228c53 36 86 64 95 92c30 -3 48 -23 48 -47c0 -35 -56 -53 -145 -115c-1 -49 -2 -98 -2 -148
c0 -35 1 -70 1 -106c31 -3 58 -4 81 -4c79 0 137 5 178 27c13 -22 19 -42 19 -63c0 -34 -24 -42 -81 -42c-38 0 -84 3 -139 3c-69 0 -111 -4 -126 -4c-22 0 -30 9 -30 35c0 33 8 117 11 255z" />
    <glyph glyph-name="Oslash" unicode="&#xd8;" horiz-adv-x="838" 
d="M199 40c-28 -37 -51 -75 -68 -115c-46 2 -70 16 -70 37s30 59 84 120c-72 75 -106 159 -106 263c0 107 39 199 113 269c73 69 169 104 285 104c72 0 136 -15 195 -47c26 34 46 69 60 106c47 -2 72 -16 72 -37c0 -19 -26 -54 -75 -108c75 -69 110 -151 110 -257
c0 -102 -37 -195 -106 -266c-79 -82 -177 -123 -294 -123c-72 0 -139 18 -200 54zM251 110c45 -31 99 -47 160 -47c170 0 293 126 293 304c0 80 -20 141 -68 193c-187 -211 -314 -362 -385 -450zM581 604c-43 26 -96 40 -157 40c-175 0 -290 -115 -290 -292
c0 -80 21 -143 68 -195c241 276 367 425 379 447z" />
    <glyph glyph-name="OE" unicode="&#x152;" horiz-adv-x="1102" 
d="M1046 603c-37 19 -94 23 -173 23c-11 0 -43 -1 -95 -2l-3 -216c27 -1 49 -1 63 -1c101 0 162 4 182 12c8 -18 12 -32 12 -43c0 -33 -19 -44 -65 -44c-30 0 -74 2 -132 2c-19 0 -40 0 -62 -1c0 -101 -2 -185 -5 -254c39 -1 74 -2 106 -2c63 0 114 6 155 26
c13 -24 19 -43 19 -59c0 -43 -30 -46 -98 -46c-50 0 -98 3 -143 3c-46 0 -74 -3 -87 -3c-24 0 -34 7 -34 28c0 12 3 44 4 96c-74 -91 -168 -136 -289 -136c-102 0 -191 34 -256 96c-71 67 -106 155 -106 263c0 107 39 199 113 269c72 68 168 104 282 104
c101 0 184 -32 256 -98c-2 26 -6 52 -12 78h61c153 0 240 9 260 9c48 0 68 -8 68 -40c0 -16 -7 -38 -21 -64zM697 368c0 165 -107 272 -273 272c-171 0 -283 -113 -283 -288c0 -170 111 -285 269 -285c168 0 287 122 287 301z" />
    <glyph glyph-name="ordmasculine" unicode="&#xba;" horiz-adv-x="378" 
d="M359 575c0 -87 -75 -158 -175 -158c-99 0 -165 62 -165 147c0 89 71 154 177 154c97 0 163 -61 163 -143zM295 570c0 57 -40 97 -102 97c-67 0 -110 -41 -110 -98c0 -59 42 -100 106 -100c63 0 106 42 106 101zM61 316c-9 15 -14 26 -14 35c0 24 18 32 55 32
c27 0 67 -5 120 -5c39 0 70 3 93 12c9 -14 14 -25 14 -34c0 -24 -18 -33 -55 -33c-36 0 -73 5 -112 5c-45 0 -78 -3 -101 -12z" />
    <glyph glyph-name="ae" unicode="&#xe6;" horiz-adv-x="770" 
d="M375 85c-61 -60 -117 -91 -173 -91c-96 0 -161 62 -161 144c0 102 83 172 220 172c26 0 51 -2 77 -5c1 11 1 18 1 20c0 67 -38 104 -107 104c-57 0 -98 -22 -116 -61c-24 7 -36 21 -36 43c0 43 59 82 157 82c76 0 128 -27 158 -84c39 55 94 84 161 84
c109 0 183 -69 183 -163c0 -75 -57 -104 -179 -104c-42 0 -92 4 -150 11v-5c0 -102 64 -168 160 -168c44 0 81 13 117 39c14 -20 21 -35 21 -47c0 -31 -50 -62 -139 -62c-83 0 -149 33 -194 91zM351 129c-9 28 -14 59 -14 95v19c-33 5 -57 7 -71 7c-94 0 -144 -37 -144 -100
c0 -52 37 -86 97 -86c43 0 86 22 132 65zM416 295c48 -7 95 -11 140 -11c73 0 104 9 104 52c0 56 -42 93 -109 93c-69 0 -120 -46 -135 -134z" />
    <glyph glyph-name="dotlessi" unicode="&#x131;" horiz-adv-x="252" 
d="M191 22c-26 -14 -51 -21 -75 -21c-34 0 -41 16 -41 64c0 56 9 134 9 235c0 69 -5 123 -25 164c25 15 51 22 75 22c31 0 39 -14 39 -52c0 -36 -9 -114 -9 -233c0 -80 7 -139 27 -179z" />
    <glyph glyph-name="lslash" unicode="&#x142;" horiz-adv-x="259" 
d="M86 293c-15 -13 -31 -29 -43 -52c-29 9 -43 21 -43 37c0 21 30 41 87 75v1c0 31 2 71 2 120c0 108 -7 182 -28 222c27 15 51 22 72 22c35 0 42 -16 42 -62c0 -38 -5 -126 -9 -263c31 23 48 44 56 61c30 -6 45 -19 45 -35c0 -20 -35 -45 -102 -87c-1 -36 -1 -64 -1 -85
c0 -107 5 -182 27 -225c-26 -14 -50 -21 -72 -21c-33 0 -41 17 -41 63c0 57 3 134 8 229z" />
    <glyph glyph-name="oslash" unicode="&#xf8;" horiz-adv-x="600" 
d="M149 30c-24 -31 -43 -64 -57 -99c-40 1 -60 10 -60 29s25 52 72 104c-46 51 -67 105 -67 173c0 153 111 261 274 261c45 0 90 -11 131 -34c23 32 40 63 52 94c43 -2 64 -11 64 -31c0 -17 -25 -47 -68 -99c49 -47 72 -104 72 -174c0 -89 -44 -172 -118 -220
c-46 -30 -99 -46 -157 -46c-52 0 -99 14 -138 42zM444 368c-121 -132 -203 -227 -248 -282c26 -20 60 -31 103 -31c108 0 184 80 184 195c0 46 -12 85 -39 118zM152 128c93 100 175 193 245 279c-22 17 -53 26 -91 26c-116 0 -189 -75 -189 -195c0 -44 11 -79 35 -110z" />
    <glyph glyph-name="oe" unicode="&#x153;" horiz-adv-x="896" 
d="M486 105c-55 -78 -125 -117 -208 -117c-139 0 -241 104 -241 249c0 152 108 261 259 261c89 0 156 -39 199 -115c40 72 104 110 185 110c111 0 185 -69 185 -163c0 -78 -59 -104 -190 -104c-36 0 -84 4 -143 11v-5c0 -103 64 -167 162 -167c44 0 82 12 119 38
c14 -20 21 -35 21 -47c0 -32 -50 -60 -140 -60c-95 0 -162 34 -208 109zM121 238c0 -106 73 -180 165 -180c97 0 168 77 168 189c0 109 -70 183 -166 183c-97 0 -167 -75 -167 -192zM538 295c47 -7 94 -11 141 -11c76 0 107 8 107 52c0 56 -43 96 -111 96
c-70 0 -123 -50 -137 -137z" />
    <glyph glyph-name="germandbls" unicode="&#xdf;" horiz-adv-x="495" 
d="M236 87c23 -12 44 -18 65 -18c48 0 78 26 78 61c0 37 -30 67 -69 112c-36 41 -54 73 -54 99c0 36 33 68 69 117c28 38 46 70 46 109c0 51 -39 86 -100 86c-95 0 -119 -60 -119 -191c0 -230 7 -362 7 -395c0 -47 -7 -66 -40 -66c-20 0 -44 8 -72 23c21 38 29 114 29 229
c0 79 -3 149 -3 210c0 174 63 255 206 255c103 0 168 -55 168 -137c0 -64 -41 -116 -95 -186c-12 -16 -19 -33 -19 -44c0 -32 30 -58 71 -102c35 -38 54 -69 54 -105c0 -78 -79 -149 -186 -149c-35 0 -53 15 -53 42c0 15 6 31 17 50z" />
    <glyph glyph-name="Aacute" unicode="&#xc1;" horiz-adv-x="666" 
d="M451 225h-264c-45 -97 -70 -168 -70 -216v-8c-9 -1 -18 -2 -26 -2c-43 0 -65 18 -65 51c0 47 110 225 260 569c-11 16 -23 30 -36 43c22 29 43 43 63 43c24 0 44 -24 67 -74c43 -95 96 -247 184 -445c26 -58 53 -109 84 -153c-24 -22 -45 -34 -68 -34
c-49 0 -74 76 -129 226zM325 540c-37 -87 -72 -170 -106 -248h206c-31 84 -64 167 -100 248zM459 882c0 -24 -19 -47 -56 -68c-63 -36 -107 -49 -123 -49c-15 0 -22 5 -22 16c0 16 26 27 52 55c48 51 72 88 105 88c27 0 44 -17 44 -42z" />
    <glyph glyph-name="Acircumflex" unicode="&#xc2;" horiz-adv-x="666" 
d="M451 225h-264c-45 -97 -70 -168 -70 -216v-8c-9 -1 -18 -2 -26 -2c-43 0 -65 18 -65 51c0 47 110 225 260 569c-11 16 -23 30 -36 43c22 29 43 43 63 43c24 0 44 -24 67 -74c43 -95 96 -247 184 -445c26 -58 53 -109 84 -153c-24 -22 -45 -34 -68 -34
c-49 0 -74 76 -129 226zM325 540c-37 -87 -72 -170 -106 -248h206c-31 84 -64 167 -100 248zM331 919c32 0 61 -29 108 -75c26 -26 41 -43 41 -60c0 -10 -8 -19 -18 -19c-13 0 -33 14 -63 34c-36 24 -57 39 -68 39c-14 0 -34 -16 -67 -38c-30 -20 -47 -34 -59 -34
c-9 0 -16 7 -16 18c0 18 19 35 47 65c38 42 62 70 95 70z" />
    <glyph glyph-name="Adieresis" unicode="&#xc4;" horiz-adv-x="666" 
d="M451 225h-264c-45 -97 -70 -168 -70 -216v-8c-9 -1 -18 -2 -26 -2c-43 0 -65 18 -65 51c0 47 110 225 260 569c-11 16 -23 30 -36 43c22 29 43 43 63 43c24 0 44 -24 67 -74c43 -95 96 -247 184 -445c26 -58 53 -109 84 -153c-24 -22 -45 -34 -68 -34
c-49 0 -74 76 -129 226zM325 540c-37 -87 -72 -170 -106 -248h206c-31 84 -64 167 -100 248zM308 844c0 -31 -25 -55 -61 -55c-33 0 -54 21 -54 51c0 32 25 56 60 56c33 0 55 -22 55 -52zM476 844c0 -32 -25 -55 -61 -55c-32 0 -53 20 -53 51c0 32 25 56 57 56
c35 0 57 -22 57 -52z" />
    <glyph glyph-name="Agrave" unicode="&#xc0;" horiz-adv-x="666" 
d="M451 225h-264c-45 -97 -70 -168 -70 -216v-8c-9 -1 -18 -2 -26 -2c-43 0 -65 18 -65 51c0 47 110 225 260 569c-11 16 -23 30 -36 43c22 29 43 43 63 43c24 0 44 -24 67 -74c43 -95 96 -247 184 -445c26 -58 53 -109 84 -153c-24 -22 -45 -34 -68 -34
c-49 0 -74 76 -129 226zM325 540c-37 -87 -72 -170 -106 -248h206c-31 84 -64 167 -100 248zM384 765c-16 0 -60 13 -124 49c-37 20 -55 43 -55 68s17 42 43 42c33 0 56 -36 105 -88c26 -28 52 -39 52 -55c0 -11 -7 -16 -21 -16z" />
    <glyph glyph-name="Aring" unicode="&#xc5;" horiz-adv-x="666" 
d="M451 225h-264c-45 -97 -70 -169 -70 -218v-6c-9 -1 -18 -2 -26 -2c-43 0 -65 18 -65 51c0 48 110 225 260 569c-9 13 -20 24 -33 34c22 29 43 43 63 43c24 0 44 -25 66 -74c109 -243 170 -453 266 -589c-24 -22 -45 -34 -68 -34c-49 0 -74 76 -129 226zM325 540
c-37 -87 -72 -170 -106 -248h206c-31 84 -64 167 -100 248zM253 847c0 -35 28 -62 66 -62c37 0 64 27 64 62c0 36 -27 62 -64 62c-38 0 -66 -26 -66 -62zM201 848c0 66 50 115 117 115c66 0 116 -50 116 -115c0 -66 -50 -117 -116 -117s-117 51 -117 117z" />
    <glyph glyph-name="Atilde" unicode="&#xc3;" horiz-adv-x="666" 
d="M451 225h-264c-45 -97 -70 -168 -70 -216v-8c-9 -1 -18 -2 -26 -2c-43 0 -65 18 -65 51c0 47 110 225 260 569c-11 16 -23 30 -36 43c22 29 43 43 63 43c24 0 44 -24 67 -74c43 -95 96 -247 184 -445c26 -58 53 -109 84 -153c-24 -22 -45 -34 -68 -34
c-49 0 -74 76 -129 226zM325 540c-37 -87 -72 -170 -106 -248h206c-31 84 -64 167 -100 248zM270 808c-43 0 -65 -39 -78 -39c-10 0 -14 7 -14 20c0 44 50 94 106 94c46 0 89 -27 125 -27c41 0 59 35 71 35c8 0 13 -6 13 -17c0 -51 -43 -94 -96 -94c-46 0 -88 28 -127 28z
" />
    <glyph glyph-name="Ccedilla" unicode="&#xc7;" horiz-adv-x="657" 
d="M567 607c-38 17 -79 24 -124 24c-188 0 -310 -113 -310 -275s119 -278 287 -278c52 0 98 12 145 38c18 -23 28 -42 28 -60c0 -38 -56 -64 -163 -64c-111 0 -205 31 -273 88c-82 69 -124 158 -124 266c0 114 51 210 151 285c71 53 175 87 291 87c81 0 117 -11 117 -48
c0 -16 -9 -37 -25 -63zM435 22c-25 -27 -37 -47 -37 -59c0 -14 9 -15 27 -20c34 -9 49 -21 49 -54c0 -57 -51 -103 -118 -103c-23 0 -34 9 -34 27c0 6 2 14 5 25c10 -3 17 -4 23 -4c36 0 58 20 58 42c0 21 -13 24 -36 28c-27 5 -41 9 -41 32c0 21 21 48 59 86h45z" />
    <glyph glyph-name="Eacute" unicode="&#xc9;" horiz-adv-x="513" 
d="M458 603c-39 18 -91 23 -156 23c-29 0 -66 -1 -111 -2l-4 -216c24 -1 49 -1 76 -1c87 0 143 4 169 12c8 -18 12 -32 12 -43c0 -32 -20 -44 -65 -44c-30 0 -74 2 -132 2c-19 0 -40 0 -62 -1c0 -82 -2 -167 -5 -254c40 -1 75 -2 106 -2c62 0 112 6 155 26
c13 -23 20 -41 20 -58c0 -39 -26 -47 -82 -47c-47 0 -94 3 -140 3c-70 0 -108 -3 -117 -3c-23 0 -31 10 -31 35c0 35 10 147 10 336c0 163 -5 273 -19 329h62c156 0 245 9 266 9c49 0 69 -8 69 -40c0 -17 -7 -38 -21 -64zM402 882c0 -24 -19 -47 -56 -68
c-63 -36 -107 -49 -123 -49c-15 0 -22 5 -22 16c0 16 26 27 52 55c48 51 72 88 105 88c27 0 44 -17 44 -42z" />
    <glyph glyph-name="Ecircumflex" unicode="&#xca;" horiz-adv-x="513" 
d="M458 603c-39 18 -91 23 -156 23c-29 0 -66 -1 -111 -2l-4 -216c24 -1 49 -1 76 -1c87 0 143 4 169 12c8 -18 12 -32 12 -43c0 -32 -20 -44 -65 -44c-30 0 -74 2 -132 2c-19 0 -40 0 -62 -1c0 -82 -2 -167 -5 -254c40 -1 75 -2 106 -2c62 0 112 6 155 26
c13 -23 20 -41 20 -58c0 -39 -26 -47 -82 -47c-47 0 -94 3 -140 3c-70 0 -108 -3 -117 -3c-23 0 -31 10 -31 35c0 35 10 147 10 336c0 163 -5 273 -19 329h62c156 0 245 9 266 9c49 0 69 -8 69 -40c0 -17 -7 -38 -21 -64zM274 919c32 0 61 -29 108 -75c26 -26 41 -43 41 -60
c0 -10 -8 -19 -18 -19c-13 0 -33 14 -63 34c-36 24 -57 39 -68 39c-14 0 -34 -16 -67 -38c-30 -20 -47 -34 -59 -34c-9 0 -16 7 -16 18c0 18 19 35 47 65c38 42 62 70 95 70z" />
    <glyph glyph-name="Edieresis" unicode="&#xcb;" horiz-adv-x="513" 
d="M458 603c-39 18 -91 23 -156 23c-29 0 -66 -1 -111 -2l-4 -216c24 -1 49 -1 76 -1c87 0 143 4 169 12c8 -18 12 -32 12 -43c0 -32 -20 -44 -65 -44c-30 0 -74 2 -132 2c-19 0 -40 0 -62 -1c0 -82 -2 -167 -5 -254c40 -1 75 -2 106 -2c62 0 112 6 155 26
c13 -23 20 -41 20 -58c0 -39 -26 -47 -82 -47c-47 0 -94 3 -140 3c-70 0 -108 -3 -117 -3c-23 0 -31 10 -31 35c0 35 10 147 10 336c0 163 -5 273 -19 329h62c156 0 245 9 266 9c49 0 69 -8 69 -40c0 -17 -7 -38 -21 -64zM251 844c0 -31 -25 -55 -61 -55
c-33 0 -54 21 -54 51c0 32 25 56 60 56c33 0 55 -22 55 -52zM419 844c0 -32 -25 -55 -61 -55c-32 0 -53 20 -53 51c0 32 25 56 57 56c35 0 57 -22 57 -52z" />
    <glyph glyph-name="Egrave" unicode="&#xc8;" horiz-adv-x="513" 
d="M458 603c-39 18 -91 23 -156 23c-29 0 -66 -1 -111 -2l-4 -216c24 -1 49 -1 76 -1c87 0 143 4 169 12c8 -18 12 -32 12 -43c0 -32 -20 -44 -65 -44c-30 0 -74 2 -132 2c-19 0 -40 0 -62 -1c0 -82 -2 -167 -5 -254c40 -1 75 -2 106 -2c62 0 112 6 155 26
c13 -23 20 -41 20 -58c0 -39 -26 -47 -82 -47c-47 0 -94 3 -140 3c-70 0 -108 -3 -117 -3c-23 0 -31 10 -31 35c0 35 10 147 10 336c0 163 -5 273 -19 329h62c156 0 245 9 266 9c49 0 69 -8 69 -40c0 -17 -7 -38 -21 -64zM327 765c-16 0 -60 13 -124 49
c-37 20 -55 43 -55 68s17 42 43 42c33 0 56 -36 105 -88c26 -28 52 -39 52 -55c0 -11 -7 -16 -21 -16z" />
    <glyph glyph-name="Eth" unicode="&#xd0;" horiz-adv-x="735" 
d="M76 702c118 2 186 6 203 6c259 0 417 -135 417 -333c0 -108 -46 -207 -130 -279c-77 -66 -181 -100 -310 -100c-118 0 -161 11 -161 75c0 37 7 126 10 267c-21 -1 -38 -2 -50 -2c-33 0 -47 8 -47 31c0 10 4 22 11 37c33 -3 62 -4 86 -4c-1 156 -10 257 -29 302zM197 91
c32 -9 65 -13 101 -13c176 0 296 115 296 276c0 162 -120 276 -299 276c-33 0 -65 -2 -97 -7c-3 -93 -4 -166 -5 -220c68 4 114 8 136 8c32 0 46 -9 46 -32c0 -15 -6 -28 -13 -41c-24 4 -58 7 -103 7c-8 0 -30 -1 -66 -2c-1 -24 -1 -48 -1 -74c0 -55 2 -114 5 -178z" />
    <glyph glyph-name="Iacute" unicode="&#xcd;" horiz-adv-x="294" 
d="M224 25c-31 -17 -59 -26 -84 -26c-37 0 -45 20 -45 71c0 65 9 176 9 336c0 141 -7 232 -30 273c32 17 59 26 83 26c36 0 46 -19 46 -67c0 -46 -10 -161 -10 -347c0 -133 7 -221 31 -266zM273 882c0 -24 -19 -47 -56 -68c-63 -36 -107 -49 -123 -49c-15 0 -22 5 -22 16
c0 16 26 27 52 55c48 51 72 88 105 88c27 0 44 -17 44 -42z" />
    <glyph glyph-name="Icircumflex" unicode="&#xce;" horiz-adv-x="294" 
d="M224 25c-31 -17 -59 -26 -84 -26c-37 0 -45 20 -45 71c0 65 9 176 9 336c0 141 -7 232 -30 273c32 17 59 26 83 26c36 0 46 -19 46 -67c0 -46 -10 -161 -10 -347c0 -133 7 -221 31 -266zM145 919c32 0 61 -29 108 -75c26 -26 41 -43 41 -60c0 -10 -8 -19 -18 -19
c-13 0 -33 14 -63 34c-36 24 -57 39 -68 39c-14 0 -34 -16 -67 -38c-30 -20 -47 -34 -59 -34c-9 0 -16 7 -16 18c0 18 19 35 47 65c38 42 62 70 95 70z" />
    <glyph glyph-name="Idieresis" unicode="&#xcf;" horiz-adv-x="294" 
d="M224 25c-31 -17 -59 -26 -84 -26c-37 0 -45 20 -45 71c0 65 9 176 9 336c0 141 -7 232 -30 273c32 17 59 26 83 26c36 0 46 -19 46 -67c0 -46 -10 -161 -10 -347c0 -133 7 -221 31 -266zM122 844c0 -31 -25 -55 -61 -55c-33 0 -54 21 -54 51c0 32 25 56 60 56
c33 0 55 -22 55 -52zM290 844c0 -32 -25 -55 -61 -55c-32 0 -53 20 -53 51c0 32 25 56 57 56c35 0 57 -22 57 -52z" />
    <glyph glyph-name="Igrave" unicode="&#xcc;" horiz-adv-x="294" 
d="M224 25c-31 -17 -59 -26 -84 -26c-37 0 -45 20 -45 71c0 65 9 176 9 336c0 141 -7 232 -30 273c32 17 59 26 83 26c36 0 46 -19 46 -67c0 -46 -10 -161 -10 -347c0 -133 7 -221 31 -266zM198 765c-16 0 -60 13 -124 49c-37 20 -55 43 -55 68s17 42 43 42
c33 0 56 -36 105 -88c26 -28 52 -39 52 -55c0 -11 -7 -16 -21 -16z" />
    <glyph glyph-name="Ntilde" unicode="&#xd1;" horiz-adv-x="802" 
d="M657 -6c-165 163 -310 357 -483 538c1 -261 9 -413 9 -454c0 -56 -6 -78 -48 -78c-24 0 -50 8 -77 25c45 77 48 217 48 426c0 112 -8 175 -56 201c26 31 47 47 71 47s43 -16 68 -45c24 -28 165 -200 438 -504c2 97 3 171 3 224c0 142 -7 243 -44 307c28 15 52 23 73 23
c44 0 49 -26 49 -87c0 -85 -11 -211 -11 -379c0 -76 3 -148 11 -216zM332 808c-43 0 -65 -39 -78 -39c-10 0 -14 7 -14 20c0 44 50 94 106 94c46 0 89 -27 125 -27c41 0 59 35 71 35c8 0 13 -6 13 -17c0 -51 -43 -94 -96 -94c-46 0 -88 28 -127 28z" />
    <glyph glyph-name="Oacute" unicode="&#xd3;" horiz-adv-x="838" 
d="M398 -14c-100 0 -188 34 -253 96c-71 67 -106 155 -106 263c0 107 39 199 113 269c72 68 169 104 282 104c222 0 365 -137 365 -343c0 -102 -37 -195 -106 -266c-79 -82 -177 -123 -295 -123zM697 368c0 165 -107 272 -273 272c-171 0 -283 -113 -283 -288
c0 -170 111 -285 269 -285c168 0 287 122 287 301zM544 882c0 -24 -19 -47 -56 -68c-63 -36 -107 -49 -123 -49c-15 0 -22 5 -22 16c0 16 26 27 52 55c48 51 72 88 105 88c27 0 44 -17 44 -42z" />
    <glyph glyph-name="Ocircumflex" unicode="&#xd4;" horiz-adv-x="838" 
d="M398 -14c-100 0 -188 34 -253 96c-71 67 -106 155 -106 263c0 107 39 199 113 269c72 68 169 104 282 104c222 0 365 -137 365 -343c0 -102 -37 -195 -106 -266c-79 -82 -177 -123 -295 -123zM697 368c0 165 -107 272 -273 272c-171 0 -283 -113 -283 -288
c0 -170 111 -285 269 -285c168 0 287 122 287 301zM416 919c32 0 61 -29 108 -75c26 -26 41 -43 41 -60c0 -10 -8 -19 -18 -19c-13 0 -33 14 -63 34c-36 24 -57 39 -68 39c-14 0 -34 -16 -67 -38c-30 -20 -47 -34 -59 -34c-9 0 -16 7 -16 18c0 18 19 35 47 65
c38 42 62 70 95 70z" />
    <glyph glyph-name="Odieresis" unicode="&#xd6;" horiz-adv-x="838" 
d="M398 -14c-100 0 -188 34 -253 96c-71 67 -106 155 -106 263c0 107 39 199 113 269c72 68 169 104 282 104c222 0 365 -137 365 -343c0 -102 -37 -195 -106 -266c-79 -82 -177 -123 -295 -123zM697 368c0 165 -107 272 -273 272c-171 0 -283 -113 -283 -288
c0 -170 111 -285 269 -285c168 0 287 122 287 301zM393 844c0 -31 -25 -55 -61 -55c-33 0 -54 21 -54 51c0 32 25 56 60 56c33 0 55 -22 55 -52zM561 844c0 -32 -25 -55 -61 -55c-32 0 -53 20 -53 51c0 32 25 56 57 56c35 0 57 -22 57 -52z" />
    <glyph glyph-name="Ograve" unicode="&#xd2;" horiz-adv-x="838" 
d="M398 -14c-100 0 -188 34 -253 96c-71 67 -106 155 -106 263c0 107 39 199 113 269c72 68 169 104 282 104c222 0 365 -137 365 -343c0 -102 -37 -195 -106 -266c-79 -82 -177 -123 -295 -123zM697 368c0 165 -107 272 -273 272c-171 0 -283 -113 -283 -288
c0 -170 111 -285 269 -285c168 0 287 122 287 301zM469 765c-16 0 -60 13 -124 49c-37 20 -55 43 -55 68s17 42 43 42c33 0 56 -36 105 -88c26 -28 52 -39 52 -55c0 -11 -7 -16 -21 -16z" />
    <glyph glyph-name="Otilde" unicode="&#xd5;" horiz-adv-x="838" 
d="M398 -14c-100 0 -188 34 -253 96c-71 67 -106 155 -106 263c0 107 39 199 113 269c72 68 169 104 282 104c222 0 365 -137 365 -343c0 -102 -37 -195 -106 -266c-79 -82 -177 -123 -295 -123zM697 368c0 165 -107 272 -273 272c-171 0 -283 -113 -283 -288
c0 -170 111 -285 269 -285c168 0 287 122 287 301zM355 808c-43 0 -65 -39 -78 -39c-10 0 -14 7 -14 20c0 44 50 94 106 94c46 0 89 -27 125 -27c41 0 59 35 71 35c8 0 13 -6 13 -17c0 -51 -43 -94 -96 -94c-46 0 -88 28 -127 28z" />
    <glyph glyph-name="Scaron" unicode="&#x160;" horiz-adv-x="431" 
d="M65 108c28 -15 56 -22 89 -22c79 0 125 39 125 97c0 54 -36 83 -88 125c-79 63 -131 103 -131 182c0 47 21 95 60 134c58 57 126 87 196 87c51 0 76 -17 76 -51c0 -11 -8 -30 -25 -57c-26 11 -52 16 -79 16c-84 0 -133 -40 -133 -105c0 -45 24 -73 68 -110
c88 -74 150 -120 150 -203c0 -40 -15 -78 -42 -113c-47 -60 -120 -95 -203 -95c-56 0 -84 20 -84 57c0 17 7 36 21 58zM222 765c-33 0 -63 33 -116 84c-22 21 -33 37 -33 51c0 11 8 19 18 19c12 0 32 -13 63 -34c35 -24 56 -39 67 -39c14 0 34 14 65 36c34 23 54 36 61 36
c10 0 16 -7 16 -20c0 -16 -27 -42 -72 -90c-26 -28 -47 -43 -69 -43z" />
    <glyph glyph-name="Thorn" unicode="&#xde;" horiz-adv-x="546" 
d="M213 26c-36 -18 -64 -27 -82 -27c-34 0 -42 22 -42 71c0 65 9 176 9 336c0 141 -7 232 -30 273c31 17 57 26 80 26c37 0 44 -20 44 -71c0 -14 -1 -29 -2 -46c27 6 54 9 81 9c154 0 244 -76 244 -202c0 -142 -108 -245 -269 -245c-21 0 -41 1 -61 4c1 -60 9 -102 28 -128z
M182 226c21 -3 42 -4 63 -4c108 0 172 61 172 161c0 91 -54 140 -157 140c-23 0 -46 -3 -72 -9c-4 -80 -7 -154 -7 -222c0 -23 1 -45 1 -66z" />
    <glyph glyph-name="Uacute" unicode="&#xda;" horiz-adv-x="752" 
d="M68 680c29 17 57 25 83 25c38 0 45 -21 45 -75c0 -60 -11 -159 -11 -297c0 -187 45 -267 181 -267c156 0 217 103 217 331c0 144 -16 237 -50 279c28 19 52 29 72 29c61 0 66 -67 66 -222c0 -345 -83 -498 -316 -498c-191 0 -262 95 -262 308c0 71 5 139 5 202
c0 83 -8 144 -30 185zM507 882c0 -24 -19 -47 -56 -68c-63 -36 -107 -49 -123 -49c-15 0 -22 5 -22 16c0 16 26 27 52 55c48 51 72 88 105 88c27 0 44 -17 44 -42z" />
    <glyph glyph-name="Ucircumflex" unicode="&#xdb;" horiz-adv-x="752" 
d="M68 680c29 17 57 25 83 25c38 0 45 -21 45 -75c0 -60 -11 -159 -11 -297c0 -187 45 -267 181 -267c156 0 217 103 217 331c0 144 -16 237 -50 279c28 19 52 29 72 29c61 0 66 -67 66 -222c0 -345 -83 -498 -316 -498c-191 0 -262 95 -262 308c0 71 5 139 5 202
c0 83 -8 144 -30 185zM379 919c32 0 61 -29 108 -75c26 -26 41 -43 41 -60c0 -10 -8 -19 -18 -19c-13 0 -33 14 -63 34c-36 24 -57 39 -68 39c-14 0 -34 -16 -67 -38c-30 -20 -47 -34 -59 -34c-9 0 -16 7 -16 18c0 18 19 35 47 65c38 42 62 70 95 70z" />
    <glyph glyph-name="Udieresis" unicode="&#xdc;" horiz-adv-x="752" 
d="M68 680c29 17 57 25 83 25c38 0 45 -21 45 -75c0 -60 -11 -159 -11 -297c0 -187 45 -267 181 -267c156 0 217 103 217 331c0 144 -16 237 -50 279c28 19 52 29 72 29c61 0 66 -67 66 -222c0 -345 -83 -498 -316 -498c-191 0 -262 95 -262 308c0 71 5 139 5 202
c0 83 -8 144 -30 185zM356 844c0 -31 -25 -55 -61 -55c-33 0 -54 21 -54 51c0 32 25 56 60 56c33 0 55 -22 55 -52zM524 844c0 -32 -25 -55 -61 -55c-32 0 -53 20 -53 51c0 32 25 56 57 56c35 0 57 -22 57 -52z" />
    <glyph glyph-name="Ugrave" unicode="&#xd9;" horiz-adv-x="752" 
d="M68 680c29 17 57 25 83 25c38 0 45 -21 45 -75c0 -60 -11 -159 -11 -297c0 -187 45 -267 181 -267c156 0 217 103 217 331c0 144 -16 237 -50 279c28 19 52 29 72 29c61 0 66 -67 66 -222c0 -345 -83 -498 -316 -498c-191 0 -262 95 -262 308c0 71 5 139 5 202
c0 83 -8 144 -30 185zM432 765c-16 0 -60 13 -124 49c-37 20 -55 43 -55 68s17 42 43 42c33 0 56 -36 105 -88c26 -28 52 -39 52 -55c0 -11 -7 -16 -21 -16z" />
    <glyph glyph-name="Yacute" unicode="&#xdd;" horiz-adv-x="595" 
d="M248 294c-126 221 -209 332 -249 335c16 55 40 82 70 82c19 0 31 -11 45 -31c15 -21 69 -129 186 -310c116 168 178 269 178 315c0 6 -1 11 -3 15c21 5 41 8 59 8c26 0 40 -13 40 -35c0 -37 -90 -150 -236 -367c0 -23 -1 -46 -1 -67c0 -104 7 -175 28 -215
c-30 -16 -56 -24 -82 -24c-34 0 -44 17 -44 61c0 26 6 104 9 233zM424 882c0 -24 -19 -47 -56 -68c-63 -36 -107 -49 -123 -49c-15 0 -22 5 -22 16c0 16 26 27 52 55c48 51 72 88 105 88c27 0 44 -17 44 -42z" />
    <glyph glyph-name="Ydieresis" unicode="&#x178;" horiz-adv-x="595" 
d="M248 294c-126 221 -209 332 -249 335c16 55 40 82 70 82c19 0 31 -11 45 -31c15 -21 69 -129 186 -310c116 168 178 269 178 315c0 6 -1 11 -3 15c21 5 41 8 59 8c26 0 40 -13 40 -35c0 -37 -90 -150 -236 -367c0 -23 -1 -46 -1 -67c0 -104 7 -175 28 -215
c-30 -16 -56 -24 -82 -24c-34 0 -44 17 -44 61c0 26 6 104 9 233zM273 844c0 -31 -25 -55 -61 -55c-33 0 -54 21 -54 51c0 32 25 56 60 56c33 0 55 -22 55 -52zM441 844c0 -32 -25 -55 -61 -55c-32 0 -53 20 -53 51c0 32 25 56 57 56c35 0 57 -22 57 -52z" />
    <glyph glyph-name="Zcaron" unicode="&#x17d;" horiz-adv-x="578" 
d="M87 0c-23 22 -34 44 -34 70c0 79 111 185 256 381c62 84 93 135 93 152c0 18 -22 19 -74 19c-116 0 -199 -4 -251 -28c-8 22 -12 40 -12 56c0 37 25 48 80 48c53 0 136 -5 248 -5c30 0 58 1 85 5c22 -21 33 -43 33 -65c0 -71 -88 -164 -213 -324
c-97 -124 -141 -196 -141 -211c0 -14 39 -20 119 -20c117 0 198 7 244 27c8 -22 12 -40 12 -53c0 -46 -29 -50 -93 -50c-74 0 -157 6 -248 6c-38 0 -73 -2 -104 -8zM295 765c-33 0 -63 33 -116 84c-22 21 -33 37 -33 51c0 11 8 19 18 19c12 0 32 -13 63 -34
c35 -24 56 -39 67 -39c14 0 34 14 65 36c34 23 54 36 61 36c10 0 16 -7 16 -20c0 -16 -27 -42 -72 -90c-26 -28 -47 -43 -69 -43z" />
    <glyph glyph-name="aacute" unicode="&#xe1;" horiz-adv-x="498" 
d="M346 243c-32 5 -55 7 -71 7c-101 0 -153 -34 -153 -100c0 -53 38 -86 101 -86c48 0 89 18 124 54c-1 21 -2 44 -2 69c0 18 1 37 1 56zM453 26c-26 -17 -47 -25 -62 -25c-28 0 -40 17 -41 55c-48 -41 -95 -62 -146 -62c-99 0 -163 61 -163 149c0 98 85 167 228 167
c26 0 52 -2 78 -5c1 9 1 16 1 20c0 68 -39 104 -111 104c-59 0 -97 -18 -121 -61c-24 6 -36 21 -36 43c0 44 59 82 163 82c119 0 179 -57 179 -172c0 -35 -3 -75 -3 -121c0 -81 8 -138 34 -174zM375 662c0 -24 -19 -47 -56 -68c-63 -36 -107 -49 -123 -49
c-15 0 -22 5 -22 16c0 16 26 27 52 55c48 51 72 88 105 88c27 0 44 -17 44 -42z" />
    <glyph glyph-name="acircumflex" unicode="&#xe2;" horiz-adv-x="498" 
d="M346 243c-32 5 -55 7 -71 7c-101 0 -153 -34 -153 -100c0 -53 38 -86 101 -86c48 0 89 18 124 54c-1 21 -2 44 -2 69c0 18 1 37 1 56zM453 26c-26 -17 -47 -25 -62 -25c-28 0 -40 17 -41 55c-48 -41 -95 -62 -146 -62c-99 0 -163 61 -163 149c0 98 85 167 228 167
c26 0 52 -2 78 -5c1 9 1 16 1 20c0 68 -39 104 -111 104c-59 0 -97 -18 -121 -61c-24 6 -36 21 -36 43c0 44 59 82 163 82c119 0 179 -57 179 -172c0 -35 -3 -75 -3 -121c0 -81 8 -138 34 -174zM247 699c32 0 61 -29 108 -75c26 -26 41 -43 41 -60c0 -10 -8 -19 -18 -19
c-13 0 -33 14 -63 34c-36 24 -57 39 -68 39c-14 0 -34 -16 -67 -38c-30 -20 -47 -34 -59 -34c-9 0 -16 7 -16 18c0 18 19 35 47 65c38 42 62 70 95 70z" />
    <glyph glyph-name="adieresis" unicode="&#xe4;" horiz-adv-x="498" 
d="M346 243c-32 5 -55 7 -71 7c-101 0 -153 -34 -153 -100c0 -53 38 -86 101 -86c48 0 89 18 124 54c-1 21 -2 44 -2 69c0 18 1 37 1 56zM453 26c-26 -17 -47 -25 -62 -25c-28 0 -40 17 -41 55c-48 -41 -95 -62 -146 -62c-99 0 -163 61 -163 149c0 98 85 167 228 167
c26 0 52 -2 78 -5c1 9 1 16 1 20c0 68 -39 104 -111 104c-59 0 -97 -18 -121 -61c-24 6 -36 21 -36 43c0 44 59 82 163 82c119 0 179 -57 179 -172c0 -35 -3 -75 -3 -121c0 -81 8 -138 34 -174zM224 624c0 -31 -25 -55 -61 -55c-33 0 -54 21 -54 51c0 32 25 56 60 56
c33 0 55 -22 55 -52zM392 624c0 -32 -25 -55 -61 -55c-32 0 -53 20 -53 51c0 32 25 56 57 56c35 0 57 -22 57 -52z" />
    <glyph glyph-name="agrave" unicode="&#xe0;" horiz-adv-x="498" 
d="M346 243c-32 5 -55 7 -71 7c-101 0 -153 -34 -153 -100c0 -53 38 -86 101 -86c48 0 89 18 124 54c-1 21 -2 44 -2 69c0 18 1 37 1 56zM453 26c-26 -17 -47 -25 -62 -25c-28 0 -40 17 -41 55c-48 -41 -95 -62 -146 -62c-99 0 -163 61 -163 149c0 98 85 167 228 167
c26 0 52 -2 78 -5c1 9 1 16 1 20c0 68 -39 104 -111 104c-59 0 -97 -18 -121 -61c-24 6 -36 21 -36 43c0 44 59 82 163 82c119 0 179 -57 179 -172c0 -35 -3 -75 -3 -121c0 -81 8 -138 34 -174zM300 545c-16 0 -60 13 -124 49c-37 20 -55 43 -55 68s17 42 43 42
c33 0 56 -36 105 -88c26 -28 52 -39 52 -55c0 -11 -7 -16 -21 -16z" />
    <glyph glyph-name="aring" unicode="&#xe5;" horiz-adv-x="498" 
d="M453 26c-25 -17 -45 -25 -61 -25c-29 0 -41 17 -42 55c-48 -41 -95 -62 -146 -62c-99 0 -163 61 -163 149c0 98 85 167 228 167c26 0 52 -2 78 -5c1 11 1 18 1 20c0 68 -39 104 -111 104c-59 0 -97 -18 -121 -61c-24 6 -36 21 -36 43c0 44 59 82 163 82
c119 0 179 -57 179 -172c0 -35 -3 -75 -3 -121c0 -81 8 -138 34 -174zM346 243c-32 5 -55 7 -71 7c-101 0 -153 -34 -153 -100c0 -53 38 -86 101 -86c49 0 88 18 124 54c-1 21 -2 44 -2 69c0 18 1 37 1 56zM181 657c0 -39 30 -69 70 -69c39 0 69 30 69 69
c0 40 -30 70 -69 70c-40 0 -70 -30 -70 -70zM129 658c0 68 52 120 121 120s121 -52 121 -120c0 -69 -52 -121 -121 -121s-121 52 -121 121z" />
    <glyph glyph-name="atilde" unicode="&#xe3;" horiz-adv-x="498" 
d="M346 243c-32 5 -55 7 -71 7c-101 0 -153 -34 -153 -100c0 -53 38 -86 101 -86c48 0 89 18 124 54c-1 21 -2 44 -2 69c0 18 1 37 1 56zM453 26c-26 -17 -47 -25 -62 -25c-28 0 -40 17 -41 55c-48 -41 -95 -62 -146 -62c-99 0 -163 61 -163 149c0 98 85 167 228 167
c26 0 52 -2 78 -5c1 9 1 16 1 20c0 68 -39 104 -111 104c-59 0 -97 -18 -121 -61c-24 6 -36 21 -36 43c0 44 59 82 163 82c119 0 179 -57 179 -172c0 -35 -3 -75 -3 -121c0 -81 8 -138 34 -174zM186 588c-43 0 -65 -39 -78 -39c-10 0 -14 7 -14 20c0 44 50 94 106 94
c46 0 89 -27 125 -27c41 0 59 35 71 35c8 0 13 -6 13 -17c0 -51 -43 -94 -96 -94c-46 0 -88 28 -127 28z" />
    <glyph glyph-name="brokenbar" unicode="&#xa6;" 
d="M219 699h62v-370h-62v370zM219 199h62v-370h-62v370z" />
    <glyph glyph-name="ccedilla" unicode="&#xe7;" horiz-adv-x="424" 
d="M372 394c-24 15 -49 22 -77 22c-98 0 -173 -77 -173 -188c0 -98 62 -160 162 -160c41 0 75 11 108 36c12 -19 18 -33 18 -45c0 -39 -47 -67 -132 -67c-145 0 -241 91 -241 221c0 79 26 143 80 198c53 54 123 83 198 83c56 0 84 -16 84 -49c0 -18 -9 -34 -27 -51zM250 22
c-25 -27 -37 -47 -37 -59c0 -14 9 -15 27 -20c34 -9 49 -21 49 -54c0 -57 -51 -103 -118 -103c-23 0 -34 9 -34 27c0 6 2 14 5 25c10 -3 17 -4 23 -4c36 0 58 20 58 42c0 21 -13 24 -36 28c-27 5 -41 9 -41 32c0 21 21 48 59 86h45z" />
    <glyph glyph-name="copyright" unicode="&#xa9;" horiz-adv-x="822" 
d="M537 208c15 -18 23 -33 23 -46c0 -26 -39 -46 -108 -46c-140 0 -235 88 -235 205c0 135 110 228 260 228c53 0 77 -7 77 -36c0 -13 -7 -29 -20 -49c-23 11 -47 15 -74 15c-102 0 -169 -61 -169 -150c0 -83 64 -145 156 -145c31 0 60 8 90 24zM755 331
c0 -91 -36 -178 -102 -244c-65 -65 -149 -100 -242 -100s-179 35 -244 100s-100 150 -100 244c0 93 36 178 101 243c67 66 151 102 244 102c78 0 161 -31 217 -79c83 -71 126 -163 126 -266zM698 330c0 78 -30 150 -85 205c-55 54 -125 83 -203 83c-77 0 -149 -30 -203 -84
s-83 -125 -83 -204c0 -78 29 -149 83 -203s127 -84 204 -84c67 0 125 18 174 56c72 56 113 139 113 231z" />
    <glyph glyph-name="degree" unicode="&#xb0;" horiz-adv-x="329" 
d="M165 702c77 0 138 -61 138 -138s-61 -138 -139 -138c-77 0 -137 60 -137 138s60 138 138 138zM165 649c-52 0 -86 -33 -86 -84c0 -49 38 -87 85 -87c49 0 87 38 87 85c0 49 -38 86 -86 86z" />
    <glyph glyph-name="divide" unicode="&#xf7;" horiz-adv-x="833" 
d="M483 474c0 -37 -29 -66 -66 -66s-66 28 -66 66c0 36 30 66 66 66c37 0 66 -29 66 -66zM667 335c26 0 45 -17 45 -37c0 -22 -17 -37 -46 -37h-500c-26 0 -45 17 -45 37c0 23 17 37 46 37h500zM417 56c-37 0 -66 28 -66 66c0 37 29 66 66 66s66 -30 66 -66
c0 -37 -29 -66 -66 -66z" />
    <glyph glyph-name="eacute" unicode="&#xe9;" horiz-adv-x="491" 
d="M407 103c14 -17 21 -32 21 -47c0 -32 -51 -60 -142 -60c-156 0 -249 91 -249 240c0 152 100 257 238 257c108 0 184 -68 184 -163c0 -79 -59 -104 -189 -104c-46 0 -98 3 -153 11v-7c0 -102 65 -165 167 -165c49 0 90 13 123 38zM123 295c41 -7 92 -11 155 -11
c72 0 102 8 102 52c0 58 -43 96 -115 96c-74 0 -128 -49 -142 -137zM397 662c0 -24 -19 -47 -56 -68c-63 -36 -107 -49 -123 -49c-15 0 -22 5 -22 16c0 16 26 27 52 55c48 51 72 88 105 88c27 0 44 -17 44 -42z" />
    <glyph glyph-name="ecircumflex" unicode="&#xea;" horiz-adv-x="491" 
d="M407 103c14 -17 21 -32 21 -47c0 -32 -51 -60 -142 -60c-156 0 -249 91 -249 240c0 152 100 257 238 257c108 0 184 -68 184 -163c0 -79 -59 -104 -189 -104c-46 0 -98 3 -153 11v-7c0 -102 65 -165 167 -165c49 0 90 13 123 38zM123 295c41 -7 92 -11 155 -11
c72 0 102 8 102 52c0 58 -43 96 -115 96c-74 0 -128 -49 -142 -137zM269 699c32 0 61 -29 108 -75c26 -26 41 -43 41 -60c0 -10 -8 -19 -18 -19c-13 0 -33 14 -63 34c-36 24 -57 39 -68 39c-14 0 -34 -16 -67 -38c-30 -20 -47 -34 -59 -34c-9 0 -16 7 -16 18
c0 18 19 35 47 65c38 42 62 70 95 70z" />
    <glyph glyph-name="edieresis" unicode="&#xeb;" horiz-adv-x="491" 
d="M407 103c14 -17 21 -32 21 -47c0 -32 -51 -60 -142 -60c-156 0 -249 91 -249 240c0 152 100 257 238 257c108 0 184 -68 184 -163c0 -79 -59 -104 -189 -104c-46 0 -98 3 -153 11v-7c0 -102 65 -165 167 -165c49 0 90 13 123 38zM123 295c41 -7 92 -11 155 -11
c72 0 102 8 102 52c0 58 -43 96 -115 96c-74 0 -128 -49 -142 -137zM246 624c0 -31 -25 -55 -61 -55c-33 0 -54 21 -54 51c0 32 25 56 60 56c33 0 55 -22 55 -52zM414 624c0 -32 -25 -55 -61 -55c-32 0 -53 20 -53 51c0 32 25 56 57 56c35 0 57 -22 57 -52z" />
    <glyph glyph-name="egrave" unicode="&#xe8;" horiz-adv-x="491" 
d="M407 103c14 -17 21 -32 21 -47c0 -32 -51 -60 -142 -60c-156 0 -249 91 -249 240c0 152 100 257 238 257c108 0 184 -68 184 -163c0 -79 -59 -104 -189 -104c-46 0 -98 3 -153 11v-7c0 -102 65 -165 167 -165c49 0 90 13 123 38zM123 295c41 -7 92 -11 155 -11
c72 0 102 8 102 52c0 58 -43 96 -115 96c-74 0 -128 -49 -142 -137zM322 545c-16 0 -60 13 -124 49c-37 20 -55 43 -55 68s17 42 43 42c33 0 56 -36 105 -88c26 -28 52 -39 52 -55c0 -11 -7 -16 -21 -16z" />
    <glyph glyph-name="eth" unicode="&#xf0;" horiz-adv-x="600" 
d="M468 416c-14 50 -35 96 -66 138c-72 -28 -117 -47 -139 -47c-13 0 -24 11 -24 29c0 5 1 11 3 20c4 0 8 -1 11 -1c21 0 62 12 120 36c-32 38 -70 57 -106 57c-6 0 -12 -1 -17 -2c-5 15 -8 28 -8 38c0 22 13 33 39 33c56 0 109 -34 167 -101c64 23 102 38 116 38
s24 -12 24 -31c0 -3 0 -9 -2 -18c-2 1 -6 1 -9 1c-19 0 -54 -9 -106 -28c62 -97 94 -205 94 -309c0 -170 -115 -281 -272 -281c-152 0 -256 100 -256 239c0 149 106 251 267 251c65 0 119 -20 164 -62zM299 59c105 0 180 74 180 177c0 102 -73 173 -179 173
s-179 -73 -179 -175c0 -103 72 -175 178 -175z" />
    <glyph glyph-name="iacute" unicode="&#xed;" horiz-adv-x="252" 
d="M191 22c-26 -14 -51 -21 -75 -21c-34 0 -41 16 -41 64c0 56 9 134 9 235c0 69 -5 123 -25 164c25 15 51 22 75 22c31 0 39 -14 39 -52c0 -36 -9 -114 -9 -233c0 -80 7 -139 27 -179zM251 662c0 -24 -19 -47 -56 -68c-63 -36 -107 -49 -123 -49c-15 0 -22 5 -22 16
c0 16 26 27 52 55c48 51 72 88 105 88c27 0 44 -17 44 -42z" />
    <glyph glyph-name="icircumflex" unicode="&#xee;" horiz-adv-x="252" 
d="M191 22c-26 -14 -51 -21 -75 -21c-34 0 -41 16 -41 64c0 56 9 134 9 235c0 69 -5 123 -25 164c25 15 51 22 75 22c31 0 39 -14 39 -52c0 -36 -9 -114 -9 -233c0 -80 7 -139 27 -179zM123 699c32 0 61 -29 108 -75c26 -26 41 -43 41 -60c0 -10 -8 -19 -18 -19
c-13 0 -33 14 -63 34c-36 24 -57 39 -68 39c-14 0 -34 -16 -67 -38c-30 -20 -47 -34 -59 -34c-9 0 -16 7 -16 18c0 18 19 35 47 65c38 42 62 70 95 70z" />
    <glyph glyph-name="idieresis" unicode="&#xef;" horiz-adv-x="252" 
d="M191 22c-26 -14 -51 -21 -75 -21c-34 0 -41 16 -41 64c0 56 9 134 9 235c0 69 -5 123 -25 164c25 15 51 22 75 22c31 0 39 -14 39 -52c0 -36 -9 -114 -9 -233c0 -80 7 -139 27 -179zM100 624c0 -31 -25 -55 -61 -55c-33 0 -54 21 -54 51c0 32 25 56 60 56
c33 0 55 -22 55 -52zM268 624c0 -32 -25 -55 -61 -55c-32 0 -53 20 -53 51c0 32 25 56 57 56c35 0 57 -22 57 -52z" />
    <glyph glyph-name="igrave" unicode="&#xec;" horiz-adv-x="252" 
d="M191 22c-26 -14 -51 -21 -75 -21c-34 0 -41 16 -41 64c0 56 9 134 9 235c0 69 -5 123 -25 164c25 15 51 22 75 22c31 0 39 -14 39 -52c0 -36 -9 -114 -9 -233c0 -80 7 -139 27 -179zM176 545c-16 0 -60 13 -124 49c-37 20 -55 43 -55 68s17 42 43 42c33 0 56 -36 105 -88
c26 -28 52 -39 52 -55c0 -11 -7 -16 -21 -16z" />
    <glyph glyph-name="logicalnot" unicode="&#xac;" horiz-adv-x="833" 
d="M657 419c33 0 52 -19 52 -52v-154c0 -29 -14 -46 -36 -46c-21 0 -38 18 -38 45v119c0 11 -6 17 -16 17h-457c-26 0 -45 16 -45 35c0 22 17 36 46 36h494z" />
    <glyph glyph-name="minus" unicode="&#x2212;" horiz-adv-x="833" 
d="M666 261h-500c-26 0 -45 17 -45 37c0 23 17 37 46 37h500c26 0 45 -17 45 -37c0 -22 -19 -37 -46 -37z" />
    <glyph glyph-name="mu" unicode="&#xb5;" horiz-adv-x="562" 
d="M188 523l-63 -293c-5 -22 -7 -43 -7 -65c0 -65 36 -101 98 -101c90 0 133 62 162 197l56 262h87l-76 -357c-6 -29 -11 -51 -11 -65c0 -24 10 -33 35 -33c5 0 10 0 16 1l-15 -70c-19 -4 -36 -5 -53 -5c-42 0 -61 18 -73 63c-29 -43 -73 -64 -132 -64c-53 0 -91 17 -125 57
l-54 -259h-88l155 732h88z" />
    <glyph glyph-name="multiply" unicode="&#xd7;" horiz-adv-x="673" 
d="M531 54l-192 192l-192 -192c-10 -10 -22 -15 -34 -15c-20 0 -34 15 -34 35c0 10 6 22 17 33l191 191l-191 192c-11 11 -17 23 -17 33c0 20 14 34 34 34c12 0 25 -5 34 -14l192 -193l191 191c10 10 22 16 34 16c19 0 34 -16 34 -36c0 -9 -6 -22 -17 -33l-190 -190
l191 -191c11 -11 17 -24 17 -33c0 -20 -16 -35 -35 -35c-12 0 -23 5 -33 15z" />
    <glyph glyph-name="ntilde" unicode="&#xf1;" horiz-adv-x="562" 
d="M160 375c-2 -114 -4 -180 -4 -200c0 -58 6 -108 24 -154c-26 -14 -49 -21 -71 -21c-34 0 -39 18 -39 66c0 40 10 122 10 245c0 70 -3 127 -23 174c14 5 28 7 43 7c34 0 55 -20 58 -55c56 36 107 55 158 55c68 0 121 -30 148 -80c24 -44 26 -97 26 -165
c0 -17 -1 -45 -1 -82c0 -69 9 -117 26 -143c-29 -15 -52 -22 -70 -22c-33 0 -41 15 -41 57c0 48 6 115 6 199c0 115 -32 168 -113 168c-41 0 -86 -17 -137 -49zM217 588c-43 0 -65 -39 -78 -39c-10 0 -14 7 -14 20c0 44 50 94 106 94c46 0 89 -27 125 -27c41 0 59 35 71 35
c8 0 13 -6 13 -17c0 -51 -43 -94 -96 -94c-46 0 -88 28 -127 28z" />
    <glyph glyph-name="oacute" unicode="&#xf3;" horiz-adv-x="600" 
d="M293 -12c-151 0 -256 103 -256 249c0 154 111 261 274 261c147 0 252 -103 252 -243c0 -58 -20 -117 -50 -155c-58 -75 -131 -112 -220 -112zM299 58c105 0 180 78 180 189c0 108 -73 183 -178 183c-107 0 -180 -76 -180 -193c0 -104 75 -179 178 -179zM430 662
c0 -24 -19 -47 -56 -68c-63 -36 -107 -49 -123 -49c-15 0 -22 5 -22 16c0 16 26 27 52 55c48 51 72 88 105 88c27 0 44 -17 44 -42z" />
    <glyph glyph-name="ocircumflex" unicode="&#xf4;" horiz-adv-x="600" 
d="M293 -12c-151 0 -256 103 -256 249c0 154 111 261 274 261c147 0 252 -103 252 -243c0 -58 -20 -117 -50 -155c-58 -75 -131 -112 -220 -112zM299 58c105 0 180 78 180 189c0 108 -73 183 -178 183c-107 0 -180 -76 -180 -193c0 -104 75 -179 178 -179zM302 699
c32 0 61 -29 108 -75c26 -26 41 -43 41 -60c0 -10 -8 -19 -18 -19c-13 0 -33 14 -63 34c-36 24 -57 39 -68 39c-14 0 -34 -16 -67 -38c-30 -20 -47 -34 -59 -34c-9 0 -16 7 -16 18c0 18 19 35 47 65c38 42 62 70 95 70z" />
    <glyph glyph-name="odieresis" unicode="&#xf6;" horiz-adv-x="600" 
d="M293 -12c-151 0 -256 103 -256 249c0 154 111 261 274 261c147 0 252 -103 252 -243c0 -58 -20 -117 -50 -155c-58 -75 -131 -112 -220 -112zM299 58c105 0 180 78 180 189c0 108 -73 183 -178 183c-107 0 -180 -76 -180 -193c0 -104 75 -179 178 -179zM279 624
c0 -31 -25 -55 -61 -55c-33 0 -54 21 -54 51c0 32 25 56 60 56c33 0 55 -22 55 -52zM447 624c0 -32 -25 -55 -61 -55c-32 0 -53 20 -53 51c0 32 25 56 57 56c35 0 57 -22 57 -52z" />
    <glyph glyph-name="ograve" unicode="&#xf2;" horiz-adv-x="600" 
d="M293 -12c-151 0 -256 103 -256 249c0 154 111 261 274 261c147 0 252 -103 252 -243c0 -58 -20 -117 -50 -155c-58 -75 -131 -112 -220 -112zM299 58c105 0 180 78 180 189c0 108 -73 183 -178 183c-107 0 -180 -76 -180 -193c0 -104 75 -179 178 -179zM355 545
c-16 0 -60 13 -124 49c-37 20 -55 43 -55 68s17 42 43 42c33 0 56 -36 105 -88c26 -28 52 -39 52 -55c0 -11 -7 -16 -21 -16z" />
    <glyph glyph-name="onehalf" unicode="&#xbd;" horiz-adv-x="877" 
d="M556 712c14 2 24 3 29 3c33 0 50 -13 50 -37c0 -29 -57 -107 -156 -248c-155 -222 -252 -363 -267 -441c-12 -2 -22 -3 -29 -3c-33 0 -49 13 -49 39c0 29 47 91 124 200c172 246 279 402 298 487zM589 65h35c61 0 115 1 166 23c8 -18 13 -34 13 -47
c0 -32 -22 -41 -71 -41c-60 0 -110 3 -150 3c-30 0 -58 -2 -84 -5c-8 14 -12 26 -12 39c0 44 51 63 114 108c83 58 127 105 127 153c0 39 -32 67 -85 67c-43 0 -73 -20 -96 -62c-25 14 -38 30 -38 48c0 41 53 79 136 79c98 0 160 -54 160 -127c0 -74 -72 -151 -215 -238z
M210 292c-23 -12 -44 -18 -60 -18c-31 0 -40 12 -40 46c0 45 7 128 7 250c0 19 -1 38 -2 58c-22 -8 -36 -13 -44 -13c-15 0 -24 9 -24 25c0 10 4 22 10 36c53 5 88 26 113 26c22 0 28 -12 28 -41c0 -16 -10 -87 -10 -213c0 -75 2 -126 22 -156z" />
    <glyph glyph-name="onequarter" unicode="&#xbc;" horiz-adv-x="877" 
d="M575 710c11 2 21 3 29 3c33 0 50 -13 50 -37c0 -28 -60 -109 -162 -256c-151 -216 -246 -354 -261 -433c-12 -2 -21 -3 -28 -3c-33 0 -50 13 -50 39c0 29 48 93 127 205c171 244 277 399 295 482zM216 289c-26 -11 -46 -17 -63 -17c-28 0 -37 14 -37 46c0 45 7 128 7 250
c0 19 -1 38 -2 58c-22 -8 -36 -13 -44 -13c-15 0 -24 9 -24 25c0 11 4 22 10 36c54 6 89 26 113 26c21 0 28 -13 28 -41c0 -13 -10 -94 -10 -247c0 -46 3 -85 22 -123zM709 358c-78 -88 -138 -142 -161 -179c17 -2 34 -3 52 -3c12 0 48 0 107 1c1 37 2 79 2 127v54zM769 124
c0 -43 1 -67 1 -74c0 -34 -9 -50 -32 -50c-15 0 -34 6 -59 18c14 28 21 62 21 99v8c-64 0 -101 1 -113 1c-25 0 -52 0 -82 -6c-16 15 -24 30 -24 46c0 35 51 78 127 160c70 76 107 127 143 127c19 0 27 -13 27 -39c0 -12 -9 -88 -9 -229c24 1 45 5 66 14
c9 -17 13 -30 13 -38c0 -27 -18 -38 -55 -38c-7 0 -15 0 -24 1z" />
    <glyph glyph-name="onesuperior" unicode="&#xb9;" horiz-adv-x="375" 
d="M250 290c-25 -13 -44 -19 -58 -19c-30 0 -39 12 -39 46c0 46 7 130 7 252c0 19 -1 38 -2 58c-20 -8 -33 -13 -43 -13c-13 0 -22 10 -22 26c0 10 3 22 10 36c52 6 85 26 107 26c23 0 29 -11 29 -40c0 -12 -9 -84 -9 -217c0 -72 1 -123 20 -155z" />
    <glyph glyph-name="otilde" unicode="&#xf5;" horiz-adv-x="600" 
d="M293 -12c-151 0 -256 103 -256 249c0 154 111 261 274 261c147 0 252 -103 252 -243c0 -58 -20 -117 -50 -155c-58 -75 -131 -112 -220 -112zM299 58c105 0 180 78 180 189c0 108 -73 183 -178 183c-107 0 -180 -76 -180 -193c0 -104 75 -179 178 -179zM241 588
c-43 0 -65 -39 -78 -39c-10 0 -14 7 -14 20c0 44 50 94 106 94c46 0 89 -27 125 -27c41 0 59 35 71 35c8 0 13 -6 13 -17c0 -51 -43 -94 -96 -94c-46 0 -88 28 -127 28z" />
    <glyph glyph-name="plusminus" unicode="&#xb1;" horiz-adv-x="833" 
d="M380 225v118h-214c-26 0 -45 17 -45 37c0 23 17 37 46 37h213v117c0 30 14 46 37 46c20 0 36 -19 36 -44v-119h214c26 0 45 -18 45 -38c0 -23 -17 -36 -46 -36h-213v-117c0 -29 -14 -46 -36 -46c-20 0 -37 18 -37 45zM165 12c-26 0 -44 17 -44 37c0 22 17 37 46 37h501
c25 0 44 -17 44 -37c0 -22 -17 -37 -47 -37h-500z" />
    <glyph glyph-name="registered" unicode="&#xae;" horiz-adv-x="822" 
d="M607 183c-14 -35 -31 -53 -48 -53c-33 0 -63 53 -130 125c-18 20 -33 31 -57 31c-5 0 -11 -1 -17 -2c0 -55 6 -98 19 -132c-22 -12 -39 -18 -54 -18c-26 0 -33 14 -33 48c0 13 3 78 3 193c0 80 -3 136 -21 170c77 2 120 7 131 7c87 0 138 -46 138 -119
c0 -56 -25 -96 -77 -125c54 -47 86 -105 146 -125zM354 334h6c70 0 110 34 110 91c0 43 -29 69 -79 69c-7 0 -18 -1 -32 -4c-3 -56 -4 -108 -5 -156zM755 331c0 -91 -36 -178 -102 -244c-65 -65 -149 -100 -242 -100s-179 35 -244 100s-100 150 -100 244
c0 93 36 178 101 243c67 66 151 102 244 102c78 0 161 -31 217 -79c83 -71 126 -163 126 -266zM698 330c0 79 -30 150 -85 205c-54 54 -125 83 -203 83c-77 0 -149 -30 -203 -84s-83 -125 -83 -204c0 -78 29 -148 83 -202s126 -83 204 -83s149 30 204 85
c54 54 83 124 83 200z" />
    <glyph glyph-name="scaron" unicode="&#x161;" horiz-adv-x="343" 
d="M70 78c23 -12 44 -18 65 -18c48 0 78 26 78 61c0 34 -20 56 -56 85c-55 46 -97 75 -97 133c0 28 11 57 33 84c40 48 96 75 161 75c32 0 48 -13 48 -35c0 -12 -7 -28 -19 -49c-17 7 -33 11 -48 11c-55 0 -91 -30 -91 -71s40 -67 94 -115c37 -33 56 -65 56 -101
c0 -78 -79 -149 -185 -149c-37 0 -56 15 -56 41c0 13 6 28 17 48zM177 545c-33 0 -63 33 -116 84c-22 21 -33 37 -33 51c0 11 8 19 18 19c12 0 32 -13 63 -34c35 -24 56 -39 67 -39c14 0 34 14 65 36c34 23 54 36 61 36c10 0 16 -7 16 -20c0 -16 -27 -42 -72 -90
c-26 -28 -47 -43 -69 -43z" />
    <glyph glyph-name="thorn" unicode="&#xfe;" horiz-adv-x="581" 
d="M158 432c53 35 104 53 154 53c133 0 232 -99 232 -230c0 -56 -19 -111 -47 -147c-56 -72 -126 -108 -208 -108c-52 0 -96 12 -135 40v-23c0 -103 6 -173 24 -212c-26 -14 -49 -21 -70 -21c-31 0 -39 16 -39 57c0 28 13 207 13 539c0 161 -4 265 -30 316
c27 15 51 22 72 22c35 0 42 -16 42 -62c0 -55 -3 -129 -8 -224zM156 109c43 -28 86 -42 130 -42c102 0 175 74 175 175c0 106 -66 175 -165 175c-44 0 -91 -16 -137 -49c-1 -60 -2 -146 -3 -259z" />
    <glyph glyph-name="threequarters" unicode="&#xbe;" horiz-adv-x="877" 
d="M780 124c0 -43 1 -67 1 -74c0 -34 -9 -50 -32 -50c-15 0 -34 6 -59 18c14 28 21 62 21 99v8c-64 0 -101 1 -113 1c-25 0 -52 0 -82 -6c-16 15 -24 30 -24 46c0 35 51 78 127 160c70 76 107 127 143 127c19 0 27 -13 27 -39c0 -12 -9 -88 -9 -229c24 1 45 5 66 14
c9 -17 13 -30 13 -38c0 -27 -18 -38 -55 -38c-7 0 -15 0 -24 1zM609 711c12 2 21 3 29 3c33 0 50 -13 50 -37c0 -29 -58 -106 -156 -247c-155 -222 -252 -363 -267 -442c-10 -2 -20 -3 -27 -3c-34 0 -51 13 -51 39c0 29 47 92 125 203c170 243 278 398 297 484zM720 358
c-78 -88 -138 -142 -161 -179c17 -2 34 -3 52 -3c12 0 48 0 107 1c1 37 2 79 2 127v54zM211 496c66 -12 100 -46 100 -97c0 -72 -84 -134 -210 -134c-54 0 -80 11 -80 39c0 12 8 27 25 45c22 -16 46 -24 74 -24c73 0 117 34 117 74c0 38 -33 53 -100 61c-42 5 -70 1 -70 27
c0 31 43 22 98 41c43 15 65 36 65 60c0 31 -28 52 -79 52c-31 0 -57 -10 -82 -31c-20 12 -30 24 -30 37c0 29 42 55 115 55c93 0 150 -45 150 -105c0 -44 -31 -78 -93 -100z" />
    <glyph glyph-name="threesuperior" unicode="&#xb3;" horiz-adv-x="375" 
d="M225 496c68 -13 100 -42 100 -93c0 -73 -85 -137 -210 -137c-54 0 -80 12 -80 40c0 13 8 28 25 45c19 -15 43 -24 75 -24c72 0 115 34 115 74c0 41 -38 54 -114 60c-35 3 -54 3 -54 28c0 30 42 22 96 40c43 15 66 36 66 61c0 30 -28 50 -79 50c-33 0 -62 -11 -82 -31
c-20 11 -29 24 -29 38c0 28 42 55 114 55c93 0 150 -45 150 -105c0 -44 -32 -79 -93 -101z" />
    <glyph glyph-name="trademark" unicode="&#x2122;" horiz-adv-x="705" 
d="M256 713c9 -10 14 -20 14 -30c0 -17 -15 -26 -43 -26c-6 0 -28 1 -65 2c-2 -35 -3 -73 -3 -115c0 -41 2 -73 17 -101c-19 -9 -35 -14 -48 -14c-19 0 -27 9 -27 31s4 67 4 136c0 25 -1 46 -2 63c-48 0 -78 -3 -91 -12c-10 14 -15 24 -15 33c0 16 13 22 38 22
c19 0 60 -3 122 -3c41 0 73 2 99 14zM671 440c-20 -8 -34 -11 -45 -11c-50 0 -31 52 -47 188c-70 -112 -92 -178 -117 -178c-29 0 -49 65 -119 175c-11 -133 0 -185 -41 -185c-10 0 -23 4 -41 13c24 48 38 115 38 196c0 20 -1 37 -8 52c13 10 24 15 33 15
c43 0 63 -74 143 -193c72 125 104 193 139 193c10 0 22 -5 35 -15c-7 -18 -9 -39 -9 -63c0 -73 14 -137 39 -187z" />
    <glyph glyph-name="twosuperior" unicode="&#xb2;" horiz-adv-x="375" 
d="M117 337c34 -2 58 -3 74 -3c51 0 91 6 124 25c9 -20 13 -35 13 -45c0 -31 -21 -39 -68 -39c-53 0 -98 3 -134 3c-27 0 -54 -1 -81 -4c-7 12 -11 24 -11 37c0 37 39 58 101 103c81 59 122 109 122 160c0 42 -29 68 -79 68c-40 0 -67 -20 -88 -63c-23 14 -35 29 -35 48
c0 39 48 75 124 75c92 0 148 -51 148 -125c0 -75 -70 -152 -210 -240z" />
    <glyph glyph-name="uacute" unicode="&#xfa;" horiz-adv-x="546" 
d="M388 71c-44 -54 -93 -79 -157 -79c-107 0 -166 66 -166 189c0 44 5 96 5 158c0 51 -5 93 -23 127c29 14 51 21 66 21c31 0 40 -14 40 -54c0 -55 -8 -125 -8 -207c0 -115 21 -165 100 -165c56 0 100 27 142 81c3 46 4 93 4 141c0 86 -8 146 -27 182c27 14 50 22 70 22
c34 0 38 -22 38 -73c0 -53 -5 -126 -5 -219c0 -83 5 -140 26 -173c-29 -14 -51 -22 -68 -22c-31 0 -37 20 -37 71zM398 662c0 -24 -19 -47 -56 -68c-63 -36 -107 -49 -123 -49c-15 0 -22 5 -22 16c0 16 26 27 52 55c48 51 72 88 105 88c27 0 44 -17 44 -42z" />
    <glyph glyph-name="ucircumflex" unicode="&#xfb;" horiz-adv-x="546" 
d="M388 71c-44 -54 -93 -79 -157 -79c-107 0 -166 66 -166 189c0 44 5 96 5 158c0 51 -5 93 -23 127c29 14 51 21 66 21c31 0 40 -14 40 -54c0 -55 -8 -125 -8 -207c0 -115 21 -165 100 -165c56 0 100 27 142 81c3 46 4 93 4 141c0 86 -8 146 -27 182c27 14 50 22 70 22
c34 0 38 -22 38 -73c0 -53 -5 -126 -5 -219c0 -83 5 -140 26 -173c-29 -14 -51 -22 -68 -22c-31 0 -37 20 -37 71zM270 699c32 0 61 -29 108 -75c26 -26 41 -43 41 -60c0 -10 -8 -19 -18 -19c-13 0 -33 14 -63 34c-36 24 -57 39 -68 39c-14 0 -34 -16 -67 -38
c-30 -20 -47 -34 -59 -34c-9 0 -16 7 -16 18c0 18 19 35 47 65c38 42 62 70 95 70z" />
    <glyph glyph-name="udieresis" unicode="&#xfc;" horiz-adv-x="546" 
d="M388 71c-44 -54 -93 -79 -157 -79c-107 0 -166 66 -166 189c0 44 5 96 5 158c0 51 -5 93 -23 127c29 14 51 21 66 21c31 0 40 -14 40 -54c0 -55 -8 -125 -8 -207c0 -115 21 -165 100 -165c56 0 100 27 142 81c3 46 4 93 4 141c0 86 -8 146 -27 182c27 14 50 22 70 22
c34 0 38 -22 38 -73c0 -53 -5 -126 -5 -219c0 -83 5 -140 26 -173c-29 -14 -51 -22 -68 -22c-31 0 -37 20 -37 71zM247 624c0 -31 -25 -55 -61 -55c-33 0 -54 21 -54 51c0 32 25 56 60 56c33 0 55 -22 55 -52zM415 624c0 -32 -25 -55 -61 -55c-32 0 -53 20 -53 51
c0 32 25 56 57 56c35 0 57 -22 57 -52z" />
    <glyph glyph-name="ugrave" unicode="&#xf9;" horiz-adv-x="546" 
d="M388 71c-44 -54 -93 -79 -157 -79c-107 0 -166 66 -166 189c0 44 5 96 5 158c0 51 -5 93 -23 127c29 14 51 21 66 21c31 0 40 -14 40 -54c0 -55 -8 -125 -8 -207c0 -115 21 -165 100 -165c56 0 100 27 142 81c3 46 4 93 4 141c0 86 -8 146 -27 182c27 14 50 22 70 22
c34 0 38 -22 38 -73c0 -53 -5 -126 -5 -219c0 -83 5 -140 26 -173c-29 -14 -51 -22 -68 -22c-31 0 -37 20 -37 71zM323 545c-16 0 -60 13 -124 49c-37 20 -55 43 -55 68s17 42 43 42c33 0 56 -36 105 -88c26 -28 52 -39 52 -55c0 -11 -7 -16 -21 -16z" />
    <glyph glyph-name="yacute" unicode="&#xfd;" horiz-adv-x="522" 
d="M126 -149c37 30 62 70 86 121l16 34c-107 255 -172 389 -220 394c15 57 40 86 67 86c19 0 33 -10 44 -33c16 -31 59 -153 154 -354c91 190 134 306 134 345c0 7 -2 16 -4 26c25 9 46 16 62 16c23 0 38 -16 38 -36c0 -40 -89 -186 -202 -465c-50 -123 -67 -191 -103 -191
c-24 0 -48 19 -72 57zM386 662c0 -24 -19 -47 -56 -68c-63 -36 -107 -49 -123 -49c-15 0 -22 5 -22 16c0 16 26 27 52 55c48 51 72 88 105 88c27 0 44 -17 44 -42z" />
    <glyph glyph-name="ydieresis" unicode="&#xff;" horiz-adv-x="522" 
d="M126 -149c37 30 62 70 86 121l16 34c-107 255 -172 389 -220 394c15 57 40 86 67 86c19 0 33 -10 44 -33c16 -31 59 -153 154 -354c91 190 134 306 134 345c0 7 -2 16 -4 26c25 9 46 16 62 16c23 0 38 -16 38 -36c0 -40 -89 -186 -202 -465c-50 -123 -67 -191 -103 -191
c-24 0 -48 19 -72 57zM235 624c0 -31 -25 -55 -61 -55c-33 0 -54 21 -54 51c0 32 25 56 60 56c33 0 55 -22 55 -52zM403 624c0 -32 -25 -55 -61 -55c-32 0 -53 20 -53 51c0 32 25 56 57 56c35 0 57 -22 57 -52z" />
    <glyph glyph-name="zcaron" unicode="&#x17e;" horiz-adv-x="449" 
d="M48 -2c-12 10 -18 23 -18 37c0 31 108 142 272 380c-45 1 -74 2 -88 2c-78 0 -129 -7 -152 -19c-7 20 -11 35 -11 47c0 31 19 39 62 39c54 0 117 -3 190 -3c32 0 64 0 96 5c11 -13 17 -25 17 -37c0 -38 -108 -147 -269 -379c26 -1 51 -2 75 -2c88 0 149 4 185 18
c7 -17 10 -30 10 -40c0 -33 -27 -46 -85 -46c-22 0 -87 4 -194 4c-32 0 -62 -2 -90 -6zM230 545c-33 0 -63 33 -116 84c-22 21 -33 37 -33 51c0 11 8 19 18 19c12 0 32 -13 63 -34c35 -24 56 -39 67 -39c14 0 34 14 65 36c34 23 54 36 61 36c10 0 16 -7 16 -20
c0 -16 -27 -42 -72 -90c-26 -28 -47 -43 -69 -43z" />
    </font>
</defs>
</svg>
